<?xml version="1.0" encoding="UTF-8"?>
<svg width="330.39" height="253.77" viewBox="0 0 330.392 253.775" xmlns="http://www.w3.org/2000/svg">
 <path d="m241.854,110.01c-1.08-1.368-1.801-3.42-1.765-6.3-.144-3.06.469-7.2 1.44-11.016 1.008-3.78 2.952-7.272 4.716-11.448 1.656-4.32 4.284-9.648 5.544-14.04 1.116-4.5 1.764-9.216 1.944-12.348 .036-3.168-1.008-5.148-.756-6.336 .288-1.332 1.224-2.088 2.52-1.152 1.26.936 3.276,3.924 4.68,6.588 1.261,2.484 2.269,5.328 2.881,8.676 .468,3.312.54,6.984.216,11.16 1.512-1.8 2.952-3.852 4.319-6.156 1.225-2.448 2.232-5.688 3.601-7.776 1.439-2.124 3.204-3.492 4.859-4.392 1.44-.936 3.169-1.44 4.213-.828 1.044.576 1.548,2.268 2.052,4.392 .288,2.088.252,5.076.324,8.136 .035,2.952-.252,6.876-.036,9.684 .18,2.7.504,5.04 1.116,6.876 1.331-.324 2.411-.288 3.239.108 .792.324 1.188,1.26 1.584,1.98 .36.684.469,1.44.469,2.268 1.943-1.692 4.176-3.204 6.695-4.68 2.521-1.548 5.364-3.348 8.244-4.284 2.772-.972 6.084-1.296 8.568-1.512 2.483-.468 5.111-1.656 6.084-.648 .792,1.008.036,3.996-1.296,6.444-1.513,2.268-5.221,5.04-7.236,7.488-2.124,2.376-3.456,4.392-4.968,6.876-1.548,2.412-2.952,5.04-4.212,7.74 4.571-2.412 8.604-4.248 12.636-5.508 3.996-1.368 7.956-2.304 10.908-2.268 2.808-.036 6.479.9 5.867,2.412-.899,1.44-6.947,4.392-10.224,6.624-3.275,2.088-5.58,4.212-9,6.516-3.563,2.34-8.532,5.184-11.448,7.416-2.951,2.124-3.743,3.744-5.724,5.148-2.088,1.259-4.212,2.196-6.516,2.664-5.328,4.572-11.053,9.288-17.172,14.292-6.229,4.968-12.673,9.937-19.729,15.336-.576,1.98-1.764,3.996-3.563,6.192-1.872,2.124-4.284,4.284-7.381,6.624-5.867,9.18-10.655,17.424-14.796,25.128-4.14,7.596-6.983,13.896-9.792,20.556-2.952,6.732-5.58,13.608-7.344,19.08-1.836,5.256-2.988,9.36-3.456,12.456-.647.54-1.296.684-2.088.828-.792.036-1.728-.108-2.664-.432 .937-4.753 2.484-10.585 4.788-17.784 2.268-7.2 6.048-18.072 8.964-25.128 2.772-7.2 4.824-11.124 8.101-17.316 3.312-6.264 6.947-12.744 11.447-19.728-.359-3.492-.324-6.589.252-9.288 .54-2.772 1.477-5.04 2.952-6.948-.036-8.784-.036-15.732.396-21.384 .323-5.652.756-8.748 1.728-12.204 .94-3.528 2.163-6.408 3.819-8.784zm3.096,4.572-1.188-1.908h.001c-1.801,4.284-2.988,7.74-3.709,10.764-.756,2.844-.611,4.644-.539,6.768-.072,2.124.035,3.96.323,5.796 .252-4.572.937-8.641 1.765-12.204 .828-3.636 1.943-6.66 3.347-9.216zm3.42,3.672c-1.656,4.86-2.771,9.107-3.636,12.744-.828,3.6-1.26,6.516-1.296,8.892 2.016-3.924 3.779-7.344 5.292-10.404 1.512-3.132 2.771-5.723 3.779-8.063-.72-.252-1.403-.684-2.052-1.152-.646-.541-1.475-1.261-2.087-2.017zm16.38,9.216c-.972.756-2.376,2.808-4.752,5.868-2.448,3.168-6.731,9.144-9.107,12.672-2.376,3.348-4.213,7.344-4.824,7.704-.828.252-.504-2.521.828-5.688 1.403-3.348 4.788-9.468 7.38-13.355 2.448-3.78 4.716-6.948 7.092-9.36 .576.54 1.224.936 1.8,1.332 .503.323 1.079.647 1.583.827zm8.388,3.492c-1.151,1.908-2.735,3.996-5.039,6.408-2.305,2.411-5.148,4.859-8.677,7.739 2.664-4.176 4.933-7.38 6.948-10.044 1.98-2.664 3.564-4.5 4.896-5.651 .612.504 1.224,1.008 1.872,1.548z" fill-rule="evenodd" stroke="#000" stroke-miterlimit="10" stroke-width=".036"/>
 <path d="m242.178,110.622 1.116,1.764c-.756,1.404-1.403,3.096-2.088,5.22-.756,2.016-1.62,5.004-2.016,7.452-.433,2.484-.54,5.148-.468,7.164 .035,1.872.396,3.276.684,4.212 .216.828.252,1.044.504.792 .144-.359.18-1.116.54-2.952 .252-1.979.828-6.336 1.296-8.603 .36-2.268.612-3.42 1.296-5.112 .576-1.8 1.44-3.636 2.448-5.508 .36.648.792,1.152 1.152,1.656 .323.432.684.828 1.08,1.188-.54,1.548-.973,3.348-1.585,5.544-.684,2.16-1.476,5.112-1.943,7.2-.576,1.872-.72,3.06-.972,4.68-.288,1.656-.505,3.528-.648,5.328-.216,1.692-.504,3.24-.468,4.788-.036,1.477-.072,4.068.432,4.032 .396-.18.432-1.656 2.196-4.824 1.656-3.348 5.796-10.584 8.1-14.22 2.269-3.564 3.384-5.184 5.437-7.092 1.907-2.232 5.292-4.68 6.12-4.968 .611-.108-.828,2.268-1.837,3.924-1.044,1.476-2.52,3.132-3.995,5.111-1.584,1.944-3.492,4.5-4.896,6.696-1.548,2.052-2.376,4.068-3.456,5.904-1.044,1.728-1.872,3.384-2.628,5.111-.9,1.765-1.979,3.744-2.268,5.4-.433,1.548-.217,3.132.216,3.78 .324.468.899.288 2.124-.828 1.224-1.332 3.42-4.032 5.184-6.156 1.477-2.124 2.664-3.815 4.536-6.444 1.944-2.808 4.104-6.443 6.912-9.54 2.664-3.203 7.956-7.919 9.36-8.747 1.26-.792-.576,2.52-1.332,3.96-.792,1.332-2.017,2.304-3.24,4.031-1.477,1.62-3.348,4.104-4.645,5.94-1.332,1.764-2.195,2.916-3.168,4.572-1.044,1.512-2.016,2.951-3.06,4.716-1.26,1.836-3.924,5.22-3.672,5.688 .252.145 2.88-1.836 5.544-3.996 2.592-2.124 6.983-6.048 10.116-8.712 3.06-2.771 5.58-5.472 7.991-7.956 .973-.144 2.017-.288 3.276-.575 1.224-.288 2.521-.721 4.032-1.152-1.152.936-3.204,2.844-6.3,5.436-3.204,2.7-8.28,6.912-12.313,10.296-4.176,3.24-9,6.805-11.952,9.181-2.952,2.304-4.788,3.672-5.508,4.392-.36,1.8-1.368,3.636-3.168,5.796-1.764,2.124-4.32,4.32-7.523,6.732-2.16,3.312-4.429,7.236-6.948,11.628-2.664,4.392-5.544,9.612-8.208,14.688-2.592,4.933-5.112,9.757-7.416,15.156-2.412,5.364-4.608,10.872-6.732,16.813-2.16,5.939-3.996,11.88-5.796,18.359-.72.252-1.368.469-1.944.504-.647,0-1.079-.035-1.584-.252 .396-2.735 1.404-6.66 3.061-12.023 1.692-5.364 4.032-12.492 6.84-19.836 2.844-7.345 2.376-6.948 5.076-13.284 2.664-6.3 2.376-5.652 5.616-11.952 3.275-6.3 5.111-9.252 7.416-13.176s4.176-6.769 5.651-8.712c-.396-1.656-.504-3.492-.468-5.221-.108-1.8.036-3.779.576-5.544 .504-1.8 1.548-3.779 2.844-5.544-.144-7.199-.144-12.888 0-17.496 .036-4.571.108-7.092.504-9.899 .324-2.952.828-4.932 1.656-7.344 .865-2.45 1.873-4.79 3.313-7.166z" fill="#3b3b19" fill-rule="evenodd" stroke="#000" stroke-miterlimit="10" stroke-width=".036"/>
 <path d="m256.687,123.798-3.349-1.836c-1.728,3.312-3.491,6.408-5.147,9.828-1.729,3.239-4.068,7.487-4.933,9.972-.936,2.376-.575,4.428-.323,4.788 .216.216.792-1.368 1.728-2.808 .828-1.44 1.8-3.456 3.313-5.904 1.476-2.628 3.708-6.876 5.292-9.252 1.51-2.376 2.518-3.924 3.419-4.788z" fill="#61611f" fill-rule="evenodd" stroke="#000" stroke-miterlimit="10" stroke-width=".036"/>
 <path d="m265.11,127.722c-1.836,2.052-3.672,4.392-5.652,7.021-2.052,2.663-4.32,5.76-6.228,8.748-1.944,2.844-3.601,5.651-5.112,8.424 1.548-1.513 3.168-3.24 5.004-5.616 1.836-2.484 3.78-5.688 5.688-8.353 1.8-2.699 3.743-5.436 5.147-7.092 1.26-1.656 2.124-2.448 2.592-2.52-.467-.181-.935-.396-1.439-.612z" fill="#61611f" fill-rule="evenodd" stroke="#000" stroke-miterlimit="10" stroke-width=".036"/>
 <path d="m277.49 131.03-3.6 0.071c-1.477 1.872-2.845 3.708-4.5 5.508-1.656 1.692-3.492 3.601-5.221 5.185-1.691 1.584-3.563 2.916-5.22 4.14l-2.88 3.816c2.268-1.656 4.464-3.313 6.732-5.112 2.159-1.8 4.031-3.456 6.588-5.651 2.414-2.342 5.113-4.897 8.101-7.957z" fill="#61611f" fill-rule="evenodd" stroke="#000" stroke-miterlimit="10" stroke-width=".036"/>
 <path d="m257.227,123.114c-1.729-.864-3.313-1.764-4.752-2.7-1.513-1.008-2.845-1.872-4.141-3.168-1.476-1.44-2.952-3.456-3.996-4.932-1.115-1.548-1.943-2.124-2.483-3.816-.576-1.8-1.296-3.384-1.044-6.264 .107-3.024 1.115-8.028 2.052-11.124 .756-3.132 1.836-4.608 2.952-7.2 1.116-2.7 2.7-5.868 3.924-8.676 1.224-2.916 2.196-6.084 3.06-8.676 .576-2.664 1.009-5.004 1.296-7.164 .324-2.124.469-4.068.576-5.688-.432-1.296-.647-2.412-.792-3.348-.252-1.08-.252-1.908 0-2.34 .216-.468.828-.9 1.692-.18 .684.684 1.944,2.556 2.952,4.356 .972,1.764 2.052,3.816 2.844,6.012 .612,2.124 1.044,3.816 1.296,6.48 .18,2.448.18,5.904 0,8.568-.324,2.484-.936,4.464-1.548,7.056-.684,2.556-1.729,4.896-2.16,8.676s-.432,9.36-.432,13.824c-.072,4.32-.072,8.712 0,12.06 .036,3.24.036,5.58.144,7.164-.469.36-.937.72-1.44,1.08z" fill="#d4b3d1" fill-rule="evenodd" stroke="#000" stroke-miterlimit="10" stroke-width=".036"/>
 <path d="m252.979,74.694c-1.729,4.788-3.097,8.964-4.104,12.816-1.08,3.78-1.872,6.768-2.231,9.936-.433,3.096-.469,5.904-.108,8.568-.684-2.484-.9-5.22-.504-8.352 .324-3.204 1.296-6.696 2.52-10.476 1.114-3.924 2.591-7.956 4.427-12.492z" fill-rule="evenodd" stroke="#000" stroke-miterlimit="10" stroke-width=".036"/>
 <path d="m252.366,86.07c-1.404,4.428-2.304,8.244-2.7,11.736-.468,3.384 0,5.976.288,8.748 .216,2.664.612,5.04 1.188,7.272-.937-3.348-1.477-6.444-1.765-9.288-.396-2.952-.54-4.932-.036-8.028 .541-3.06 1.405-6.588 3.025-10.44z" fill-rule="evenodd" stroke="#000" stroke-miterlimit="10" stroke-width=".036"/>
 <path d="m259.386,100.038c-.035-1.8-.144-3.06-.035-4.212-.036-1.116.144-1.98.252-2.448l1.655.18-.107-3.06c-.504-.756-.685-1.296-.685-1.764-.035-.576.252-1.044.721-.864 .432.144 1.332,1.44 1.728,2.088 .18.612-.072,1.476-.216,1.764-.216.18-.432.108-.792-.36l.216,2.196c.18-.504.54-.684 1.08-.936 .504-.252 1.188-.36 2.052-.324-.504-1.692-.684-2.844-.684-3.6-.072-.756.54-1.008.864-.756 .252.216.792,1.296.792,1.836-.036.396-.288.612-.9.648l1.044,2.448c-.936.828-1.836,1.764-2.7,2.664-.936.828-1.943,2.124-2.628,2.916s-1.333,1.188-1.657,1.584z" fill="#fee010" fill-rule="evenodd" stroke="#000" stroke-miterlimit="10" stroke-width=".036"/>
 <path d="m268.206,91.434c-.432-1.368-.576-2.196-.432-2.772 .107-.576 1.008-.756 1.151-.54 .108.144-.144.72-.611,1.584l.576,1.152-.684.576z" fill="#fee010" fill-rule="evenodd" stroke="#000" stroke-miterlimit="10" stroke-width=".036"/>
 <path d="m283.146,83.73c-.828-.108-1.765-.072-3.097.396-1.367.36-3.384,1.296-4.644,1.98-1.404.576-2.124,1.044-3.132,1.836-1.08.648-2.052,1.62-3.061,2.52l-.576-.756c.36-.504.576-.972.648-1.26-.036-.324-.108-.756-.36-.72-.396-.108-1.008.036-1.26.432-.252.252-.324.936-.216,1.512 0,.504.216,1.224.504,1.872-.252.144-.54.252-.72.468-.216.18-.468.324-.612.576l-.899-2.052c.287-.036.504-.108.647-.216 .145-.216.145-.216.145-.54-.072-.324-.181-1.116-.324-1.404-.145-.432-.36-.648-.504-.792-.396-.216-.721-.288-.973-.072-.288.18-.432.684-.432,1.224-.108.36-.072.936.108,1.44 .071.576.216,1.08.432,1.8-.432-.036-.9,0-1.26.108-.433.036-.756.252-1.116.504l-.072-.504c.252.072.468,0 .648-.072 .144-.216.252-.216.324-.54 .071-.504 0-1.044-.072-1.62-.288-.612-.612-1.296-.973-1.656-.287-.576-.756-.828-1.008-.9-.396,0-.863.324-1.008.828-.252.432-.18.972-.072,1.476 0,.396.324.792.576,1.044l.145,2.52-1.08-.288c-.288-1.26-.324-2.556-.108-4.032 .108-1.476.504-3.132 1.044-4.824 .433-1.908 1.512-4.176 1.98-5.832 .396-1.62.504-2.88.468-3.78 .936-.756 1.908-1.908 2.916-3.312 .936-1.548 2.231-3.708 3.06-5.364 .648-1.8 1.08-3.276 1.729-4.572 .504-1.26 1.26-1.908 2.268-2.772 1.008-1.044 2.484-2.196 3.744-2.772 1.152-.54 2.269-.972 3.204-.468 .72.432 1.26,1.44 1.62,3.168 .144,1.729.396,4.284.359,6.84 .036,2.484 0,5.652.036,7.704-.036,1.872-.144,2.088-.036,3.564 .036,1.44.108,3.528.36,4.896 .147,1.224.362,1.98.65,2.412z" fill="#d4b3d1" fill-rule="evenodd" stroke="#000" stroke-miterlimit="10" stroke-width=".036"/>
 <path d="m264.606,85.602c-.252-.612-.108-1.764.576-3.6 .611-1.836 1.691-4.212 3.239-7.272-.936,1.944-1.836,3.996-2.412,5.76-.647,1.728-1.114,3.564-1.403,5.112z" fill-rule="evenodd" stroke="#000" stroke-miterlimit="10" stroke-width=".036"/>
 <path d="m268.351,85.35c-.145-1.152.107-2.412.611-4.176 .433-1.8 1.584-4.356 2.34-6.12 .648-1.8 1.297-3.42 1.801-4.716-.648,2.088-1.261,3.996-1.836,5.724-.612,1.764-1.332,2.808-1.729,4.5-.54,1.584-.935,3.132-1.187,4.788z" fill-rule="evenodd" stroke="#000" stroke-miterlimit="10" stroke-width=".036"/>
 <path d="m259.17,121.638c-.036-1.836-.144-4.428-.036-7.92 .072-3.6.072-7.74.288-12.96 1.836-2.088 3.528-3.888 5.076-5.4 1.44-1.512 2.521-2.556 4.068-3.708 1.476-1.296 3.096-2.664 4.859-3.708 1.692-1.224 3.204-2.16 4.824-2.808 1.44-.648 2.916-.756 3.853-.864 .756-.108.792-.18 1.367-.072 .576-.18 1.477-.18 2.16-.144 .54-.036.864.108 1.404.576 .432.504 1.08,1.44 1.404,2.268 .18.648.036,1.512.252,2.052 .144.468.468.432.972,1.008 .432.504 1.656,1.008 1.872,2.088 .144,1.08-1.008,2.448-.972,3.96-.108,1.26.54,2.736.575,4.032-.107,1.224-.684,2.448-.756,3.384-.107.864.433.144.108,2.016-.504,1.872-1.368,4.86-2.736,9.108-1.512,1.296-3.42,2.664-5.58,4.104-2.304,1.404-4.716,2.88-7.668,4.428 .072-.504.145-.828-.071-.972-.181-.288-.469-.324-1.009.036-.647.36-1.728,1.08-2.699,2.16-1.08,1.008-2.305,2.051-3.673,3.528-.468-.145-1.044-.469-2.016-.973-.972-.611-2.196-1.367-3.672-2.411 .9-1.188 1.656-2.16 2.268-3.06 .576-.864 1.009-1.656 1.297-2.232 .216-.756.216-1.368-.145-1.44-.432-.072-1.692.72-2.412,1.26-.899.504-1.584,1.224-2.196,1.764-.573.432-.862.684-1.006.9z" fill="#d4b3d1" fill-rule="evenodd" stroke="#000" stroke-miterlimit="10" stroke-width=".036"/>
 <path d="m286.71 98.706c-1.512 2.844-3.023 5.688-4.68 8.388-1.764 2.7-3.564 5.724-5.256 7.956-1.656 2.16-2.988 3.492-4.536 5.112-1.656 1.476-3.313 2.772-5.112 3.888 2.124-1.476 4.212-3.42 6.265-5.688 2.016-2.34 3.636-4.896 5.976-8.1 2.196-3.384 4.643-7.092 7.343-11.556z" fill-rule="evenodd" stroke="#000" stroke-miterlimit="10" stroke-width=".036"/>
 <path d="m277.57 104.61c-1.08 2.376-2.412 4.896-4.141 7.56-1.764 2.7-3.815 5.328-6.155 8.28 1.907-2.52 3.672-5.04 5.436-7.704 1.692-2.664 3.313-5.328 4.86-8.136z" fill-rule="evenodd" stroke="#000" stroke-miterlimit="10" stroke-width=".036"/>
 <path d="m276.2 100.33c-1.692 3.384-3.313 6.408-5.004 8.928-1.729 2.484-3.384 4.608-5.112 6.228 2.196-2.556 4.141-5.148 5.832-7.632 1.729-2.52 3.061-5.076 4.284-7.524z" fill-rule="evenodd" stroke="#000" stroke-miterlimit="10" stroke-width=".036"/>
 <path d="m274.362,123.582c1.044-.36 2.34-1.224 4.176-2.196 1.729-1.116 4.32-2.808 6.372-4.104 1.836-1.332 3.204-2.304 5.22-3.744 2.017-1.584 4.752-3.78 7.093-5.22 2.231-1.476 3.96-2.52 6.3-3.564 2.268-1.224 4.464-2.232 6.983-3.168 2.412-1.08 5.292-1.908 7.668-2.484 2.305-.576 4.5-.828 6.049-.9 1.439-.216 1.691.036 2.556.18 .792.072 1.872.324 2.412.612 .54.216.863.504.684,1.008-.216.432-.72.756-2.196,1.8-1.655,1.044-5.256,2.808-7.344,4.32-2.16,1.404-3.384,2.34-5.472,3.924-2.232,1.476-5.22,3.564-7.452,5.148-2.376,1.476-4.464,2.52-6.12,3.672-1.656,1.08-2.448,1.548-3.492,2.664-1.044,1.008-1.979,2.232-3.096,3.276-1.332.936-3.096,1.692-4.608,2.412-1.655.612-3.275.9-4.716,1.404-1.476.432-2.304.684-3.744,1.044-1.512.252-3.779.611-5.147.684-1.404-.107-2.412-.396-3.168-.72-.792-.433-1.548-.756-1.872-1.368 .432-.504.9-1.188 1.404-1.908 .466-.792.97-1.764 1.51-2.772z" fill="#d4b3d1" fill-rule="evenodd" stroke="#000" stroke-miterlimit="10" stroke-width=".036"/>
 <path d="m300.066,113.034c-4.356,3.024-7.632,5.472-10.26,7.488-2.593,1.872-3.421,3.24-5.257,4.392-1.979,1.116-5.04,2.016-6.407,2.556-1.44.504-2.16.504-2.16.288 .288.036 1.08-.145 2.52-.684 1.404-.576 3.78-1.26 5.868-2.484 1.98-1.224 3.384-3.096 6.156-4.932 2.628-1.944 5.976-4.248 9.899-6.768l-.359.144z" fill-rule="evenodd" stroke="#000" stroke-miterlimit="10" stroke-width=".036"/>
 <path d="m289.662,118.722c-1.8,1.368-3.456,2.556-4.968,3.564-1.584.972-3.168,1.656-4.212,2.196-1.116.432-1.872.72-2.269.72 1.44-.468 3.061-1.296 5.004-2.34 1.873-1.116 4.069-2.448 6.445-4.14z" fill-rule="evenodd" stroke="#000" stroke-miterlimit="10" stroke-width=".036"/>
 <path d="m289.302,88.626c1.584-1.332 3.133-2.484 4.788-3.6 1.62-1.188 3.313-2.304 5.076-3.204 1.656-.936 3.349-1.836 5.076-2.304 1.584-.504 3.276-.828 4.788-.972 1.439-.396 2.808-.324 4.104-.612 1.297-.252 2.484-.828 3.42-.9 .864-.144 1.368-.288 1.656.252 .145.432.108,1.584-.107,2.628-.288.972-.685,2.304-1.332,3.42-.685.936-1.692,1.8-2.592,2.736-1.009.828-2.196,1.8-3.169,2.916-1.151,1.116-2.124,2.16-3.06,3.528-.9,1.116-1.836,2.232-2.664,3.78-1.08,1.548-2.376,3.672-3.204,5.4-.792,1.584-1.548,2.916-1.872,4.14-1.476.828-2.808,1.728-3.996,2.556-1.367.684-2.088,1.548-3.42,2.448-1.332.936-2.771,2.088-4.464,3.312 .9-2.484 1.548-4.32 2.088-5.94 .504-1.62.9-2.736 1.044-3.492 .108-.792-.684-.9-.576-1.296-.035-.648.252-1.224.433-1.872 .072-.612.252-1.26.252-1.944-.18-.972-.576-2.16-.612-3.024 0-.756.145-1.584.433-2.088 .107-.72.432-1.548.54-2.052 0-.648-.072-.972-.217-1.368-.359-.54-.756-.612-1.188-1.044-.361-.432-.901-.9-1.225-1.404z" fill="#d4b3d1" fill-rule="evenodd" stroke="#000" stroke-miterlimit="10" stroke-width=".036"/>
 <path d="m304.64 89.562c-3.06 2.988-5.256 5.4-7.02 7.38-1.728 1.98-2.88 3.24-3.312 4.176 0.756-1.332 1.691-2.736 2.808-4.068 1.152-1.548 2.484-2.952 3.852-4.212 1.297-1.26 2.376-2.304 3.672-3.276z" fill-rule="evenodd" stroke="#000" stroke-miterlimit="10" stroke-width=".036"/>
 <path d="m300.858,89.67c-1.296,1.188-2.34,2.088-3.132,2.988-.792.828-1.549,1.512-1.872,2.052 .54-1.08 1.115-2.016 2.016-2.808 .864-.828 1.764-1.62 2.988-2.232z" fill-rule="evenodd" stroke="#000" stroke-miterlimit="10" stroke-width=".036"/>
 <path d="m123.09,79.122c-1.368-1.692-4.032-3.168-8.28-4.716-4.32-1.62-12.096-2.592-17.064-4.428-5.076-1.944-9.36-5.076-12.852-6.876-3.528-1.872-4.716-3.744-8.28-3.96-3.672-.252-10.08,1.62-13.248,2.7-3.24,1.008-7.056,1.728-5.616,3.42s10.224,4.248 14.292,6.552c3.96,2.16 7.056,3.78 9.72,6.516 2.556,2.7 3.528,5.868 5.976,9.504 2.412,3.528 6.192,8.532 8.568,11.268 2.304,2.448 4.032,2.736 5.328,4.212 1.296,1.512 2.016,3.168 2.304,4.968-3.276-.756-6.084-1.116-8.424-1.08-2.412-.036-4.356-.036-5.832,1.116-1.62,1.188-2.088,3.636-3.348,5.544-1.26,1.728-2.52,3.276-4.212,5.04-1.908,1.728-6.192,4.32-6.588,5.436-.432.936 1.584,1.188 4.248.9 2.628-.252 8.352-2.412 11.484-2.304 2.988.108 3.996,2.16 6.768,2.7 2.808.288 6.624-.756 9.648-.36 2.772.288 3.24,1.151 7.38,2.592 4.14,1.367 11.952,4.176 17.208,5.796 5.148,1.512 10.009,2.483 13.608,3.6 3.42,1.044 5.724,1.944 6.912,2.7 .828,2.196 2.376,4.355 4.5,6.336 2.16,2.016 4.752,3.708 8.208,5.508 3.672,5.04 6.876,10.548 9.612,16.92 2.736,6.265 4.859,14.4 6.66,20.809 1.62,6.228 2.52,11.159 3.672,17.279 1.044,6.12 2.088,14.292 2.844,19.513 .72,5.147 1.152,8.855 1.44,11.268 1.691.432 3.168.612 4.14.54 .936-.145 1.656-.54 1.872-1.188-1.656-15.911-3.672-29.159-5.904-40.571-2.268-11.376-5.22-19.152-7.74-27.072-2.699-8.064-5.184-14.832-7.884-20.7 .792-2.916 1.332-5.399 1.477-7.74 .071-2.447.036-4.355-.54-6.119-.685-1.729-1.765-3.097-3.24-4.104 .432-4.428 1.26-8.675 2.34-12.744 1.044-4.176 3.168-7.776 4.032-11.772 .72-4.104.972-7.992.612-12.204 1.512-6.516 2.844-12.024 4.14-17.1 1.152-5.112 1.944-9.216 3.204-12.888s2.592-6.768 3.996-9.288c1.296-2.808 3.708-5.436 3.636-6.768-.324-1.368-2.196-1.548-4.644-1.08-2.521.396-7.633,2.772-9.937,3.384-2.34.432-2.844-1.08-3.852-.216-1.152.864-1.549,2.052-2.557,5.22-1.151,3.096-2.195,7.308-3.672,13.032-.612-4.68-1.944-9.648-3.708-14.904-1.836-5.436-5.04-11.628-7.272-16.92-2.411-5.364-4.859-9.396-6.516-14.724-1.728-5.544-2.484-13.86-3.528-17.172-1.151-3.276-2.231-2.844-3.239-2.196-1.188.648-2.628,3.744-3.349,5.544-.792,1.656-.107,2.232-1.008,4.356-1.188,1.944-3.348,4.968-4.932,7.704-1.549,2.592-3.276,5.148-3.925,8.496-.684,3.384-.899,7.128-.359,11.628-1.477-4.356-3.744-8.532-6.948-12.672-3.384-4.176-9.9-11.592-12.167-12.096-2.124-.612-1.512,3.78-.792,8.604 .576,4.752 3.204,13.968 4.428,20.016 1.08,5.976 1.728,11.304 2.484,15.696 .612,4.176 1.152,6.768 1.908,10.008 .756,3.273 1.692,6.405 2.808,9.537z" fill-rule="evenodd" stroke="#000" stroke-miterlimit="10" stroke-width=".036"/>
 <path d="m148.074,85.746-.324-2.628c.612-.108 1.116-.612 1.368-1.224 .288-.756.324-2.124.252-2.844-.072-.828-.54-1.368-1.008-1.476-.721-.144-2.088.504-2.557,1.116-.396.504-.216,1.296-.036,2.232 0,.9.324,1.944.576,3.276-.504.072-.792.108-1.151.252-.396.108-.576.324-.828.504-.468-2.232-.864-3.888-1.332-4.968-.504-1.188-1.08-1.62-1.584-1.728-.721-.216-1.8.072-2.124.72-.216.54-.181,2.088.504,2.844 .54.684 1.439,1.08 2.844,1.332 .36.828.54,1.62.685,2.52 .071.864-.036,1.692-.181,2.628-.359-1.512-1.116-2.628-2.268-3.492-1.225-.936-2.844-1.332-4.86-1.584-.107-1.296-.396-2.412-.72-3.348-.504-1.008-1.08-2.088-1.584-2.268-.685-.216-1.368.396-1.62,1.008-.18.612-.216,1.872.288,2.412 .468.36 1.08.396 2.231-.036 .181.648.36,1.116.396,1.548 .036.324-.072.576-.18.756-.828.252-1.513.576-2.053,1.116-.611.468-1.08,1.152-1.403,1.908l-2.088-2.304c0-1.404-.108-2.16-.612-2.664-.432-.54-1.908-.612-2.196-.072-.504.396-.647,2.376-.288,3.024 .324.504 1.62.252 2.376.756 .721.468 1.296,1.224 1.872,2.268-.432,1.044-.576,2.052-.576,3.024s.181,1.908.54,2.808c-1.008-.576-1.836-1.008-2.483-1.296-.648-.396-1.152-.612-1.368-.792-.072-.936-.396-1.584-.828-1.944-.576-.432-1.62-.864-2.016-.468-.469.36-1.009,1.548-.36,2.592 .648.9 3.024,2.196 4.068,3.06 .863.684 1.08,1.044 1.476,1.764 .36.72.648,1.62.864,2.7-.828-.324-1.62-.72-2.376-1.044-.864-.396-1.98-1.332-2.521-1.296-.684-.108-1.151.288-.972,1.044 .18.648 1.224,2.52 2.016,2.988 .648.396 1.332.288 2.053-.324 .72-.144 1.26.108 1.619.612 .324.396.433,1.872.181,2.34-.433.432-2.017-.18-2.412.504-.36.648-.324,2.448.108,3.312 .359.828 1.296,1.332 1.836,1.368 .432-.072.611-.648.684-1.728 0,.936.324,1.8.828,2.592 .504.684 1.188,1.332 2.196,1.8 .396,1.368.863,2.232 1.403,2.88 .433.468 1.225.18 1.8.684 .576.504.973,1.656 1.585,2.34 .504.612 1.044,1.08 1.619,1.404 1.261-.18 2.341-.252 3.385-.36 .972-.216 1.872-.432 2.699-.216 .828.252 1.513.756 2.196,1.656 .54.216.828.216 1.008-.144 .108-.396-.107-1.008-.071-1.98 0-1.08-.396-2.484.18-3.78 .432-1.368 1.404-2.844 2.771-3.852 1.297-1.152 3.24-1.872 5.437-2.304 2.052-.396 4.644-.324 7.38.216 .288-2.988.216-5.04-.216-6.156-.576-1.116-2.7.288-2.628-.648 .107-1.152 3.24-5.04 3.132-5.688-.36-.54-3.564,1.836-4.608,2.124-.936.144-1.224-.324-1.296-1.008-.18-.864-.18-2.16.145-3.456 .252-1.332 1.476-3.348 1.332-4.104-.396-.756-2.269-.936-2.7-.396-.396.432-.324,1.476.359,3.132l-1.115,1.332c-.504-.828-.864-1.584-1.08-2.124-.252-.612-.36-1.008-.324-1.332 .648-1.26 1.116-2.34 1.548-3.24 .324-1.044.937-1.836.72-2.376-.359-.612-2.016-1.62-2.34-1.08-.432.396-.216,1.656.252,3.636l-1.368,1.548c-.359-.432-.684-.648-.972-.936-.324-.324-.72-.432-1.044-.612l.756-3.456c1.08-.396 1.729-1.044 1.8-1.8 .036-.864-.863-2.7-1.332-2.988-.504-.324-1.655.216-1.8,1.08-.216.72-.144,1.8.36,3.384l-.9,3.348c-1.044,0-1.8-.072-2.268.072-.54.108-.648.288-.72.396-.073,0-.217-.18-.037-.396z" fill="#fee010" fill-rule="evenodd" stroke="#000" stroke-miterlimit="10" stroke-width=".036"/>
 <path d="m148.434,87.87c.072.72.108,1.152-.035,1.692-.181.36-.433.828-.757,1.008l.252,1.152c.288.216.648.432 1.08.504 .433.108.792.072 1.368.036 .36-.216.576-.504.648-.864-.036-.468-.252-1.116-.252-1.656-.108-.612-.145-1.296.036-1.656 .18-.468.432-.72.899-.9-.936.72-1.548,1.08-2.124,1.224-.503.072-.971-.108-1.115-.54z" fill-rule="evenodd" stroke="#000" stroke-miterlimit="10" stroke-width=".036"/>
 <path d="m148.974,88.662c.072.54.108.936-.036,1.332-.18.324-.432.648-.756.828l.108.54c.18.324.576.504.9.54 .359.036.972-.108 1.26-.288 .071-.36-.181-1.044-.216-1.512-.072-.504-.072-.972 0-1.404-.288.252-.648.324-.792.36-.18,0-.432-.18-.468-.396z" fill="#d4b3d1" fill-rule="evenodd" stroke="#000" stroke-miterlimit="10" stroke-width=".036"/>
 <path d="m146.454,92.514c.216.864.144,1.62-.072,1.98-.324.36-.828.468-1.512.324l.396,2.988-.863-3.816c.684.36 1.26.432 1.584.216 .359-.324.467-.756.467-1.692z" fill-rule="evenodd" stroke="#000" stroke-miterlimit="10" stroke-width=".036"/>
 <path d="m143.322,92.334c-.072.72-.181,1.404-.469,2.052-.323.648-.827,1.404-1.367,1.872-.612.324-1.477.648-2.448.576 .756,0 1.332-.36 2.124-1.08 .684-.72 1.404-1.908 2.16-3.42z" fill-rule="evenodd" stroke="#000" stroke-miterlimit="10" stroke-width=".036"/>
 <path d="m133.314,95.106c.539.432 1.151.972 1.836,1.224 .611.36 1.403.432 2.231.612-1.008-.36-1.836-.756-2.483-1.044-.648-.324-1.224-.54-1.584-.792z" fill-rule="evenodd" stroke="#000" stroke-miterlimit="10" stroke-width=".036"/>
 <path d="m146.13,104.898c-.612.54-1.296.684-1.908.828-.684-.036-1.403-.072-2.16-.504 .612.612 1.297.972 1.908,1.08 .54,0 1.477-.18 1.836-.396 .36-.18.468-.648.324-1.008z" fill-rule="evenodd" stroke="#000" stroke-miterlimit="10" stroke-width=".036"/>
 <path d="m150.918,99.75c.432.9.468,1.8.252,2.304-.324.468-.936.936-1.836,1.008 .684-.252 1.224-.648 1.476-1.188 .216-.612.252-1.224.108-2.124z" fill-rule="evenodd" stroke="#000" stroke-miterlimit="10" stroke-width=".036"/>
 <path d="m152.178,96.078c.54-.396 1.044-.684 1.368-1.26 .324-.468.504-1.224.54-1.872 .216.288.468.432.9.432 .359,0 .756-.18 1.332-.396-.252.288-.288.864-.504,1.728-.108.864-.396,1.872-.469,3.312-1.151-.252-1.979-.324-2.628-.216-.684.108-1.044.252-1.224.72 .504-.576.828-1.116.972-1.476 .037-.468.073-.792-.287-.972z" fill-rule="evenodd" stroke="#000" stroke-miterlimit="10" stroke-width=".036"/>
 <path d="m152.934,97.626c-.035-.504 0-.792-.035-1.008s-.108-.36-.217-.288c.54-.288 1.08-.576 1.332-1.008 .324-.432.36-.936.396-1.512 .072.144.252.144.396.144 .145-.072.396-.18.612-.324-.18.72-.288,1.26-.324,1.908-.036.576-.144,1.116-.036,1.62-.468-.144-.863-.108-1.188-.036-.324.036-.684.252-.936.504z" fill="#d4b3d1" fill-rule="evenodd" stroke="#000" stroke-miterlimit="10" stroke-width=".036"/>
 <path d="m158.082,100.11c-.432.216-.576.576-.432,1.224 .071.576.432,1.332 1.079,2.268-.468-.252-1.224-.216-1.871-.036-.828.108-1.549.504-2.557,1.044 1.044-.468 2.196-.612 3.061-.72 .828-.108 1.764-.036 2.412.216-.864-1.008-1.44-1.836-1.729-2.484-.287-.684-.323-1.188.037-1.512z" fill-rule="evenodd" stroke="#000" stroke-miterlimit="10" stroke-width=".036"/>
 <path d="m132.521,102.63c.757.396 1.152.864 1.188,1.404-.036.54-.396,1.044-1.224,1.656 .359-.684.72-1.332.684-1.8-.035-.504-.251-.972-.648-1.26z" fill-rule="evenodd" stroke="#000" stroke-miterlimit="10" stroke-width=".036"/>
 <path d="m135.15,106.554c1.332.432 2.088,1.044 2.268,1.692 .108.612-.36,1.404-1.404,2.232 .721,0 1.404.288 2.196.864 .72.54 1.476,1.368 2.268,2.484-.611-1.224-1.26-2.052-1.8-2.628-.576-.576-1.188-.864-1.691-.864 .863-.756 1.151-1.44.863-2.052-.324-.648-1.224-1.224-2.7-1.728z" fill-rule="evenodd" stroke="#000" stroke-miterlimit="10" stroke-width=".036"/>
 <path d="m135.942,100.83c.504,1.224 1.115,1.62 1.691,1.584 .576-.144 1.188-.9 1.836-2.268-.468.9-.756,1.764-.864,2.592-.107.72-.071,1.548.253,2.196 .18.648.575,1.26 1.044,1.836-.721-.36-1.188-.828-1.404-1.548-.324-.72-.36-1.584-.252-2.592-.54.324-1.044.288-1.368.036-.396-.324-.756-.936-.936-1.836z" fill-rule="evenodd" stroke="#000" stroke-miterlimit="10" stroke-width=".036"/>
 <path d="m145.086,108.786c-.468.504-.972.9-1.368.9-.468.072-.828-.252-1.224-.684 0,.684.18.972.54,1.26 .288.108.756.216 1.403-.072 0,.54.181,1.116.396,1.872 .18.648.504,1.44.972,2.376-.468-1.368-.756-2.448-.863-3.384-.18-.936-.036-1.692.144-2.268z" fill-rule="evenodd" stroke="#000" stroke-miterlimit="10" stroke-width=".036"/>
 <path d="m148.326,106.23c.216.792.647,1.332 1.151,1.62 .54.216 1.477.18 1.98-.108 .396-.324.612-1.152.647-2.088 .36.612.505,1.044.288,1.584-.252.396-.936,1.152-1.476,1.296-.54.072-1.548-.144-1.908-.504-.466-.468-.646-.936-.682-1.8z" fill-rule="evenodd" stroke="#000" stroke-miterlimit="10" stroke-width=".036"/>
 <path d="m147.786,98.706c-1.08.252-1.729.432-2.088.936-.324.396-.288,1.008.107,1.548 .181.432.612.72 1.296,1.008-.972-.252-1.548-.648-1.872-1.044-.504-.504-.504-1.224-.144-1.62 .397-.396 1.297-.72 2.701-.828z" fill-rule="evenodd" stroke="#000" stroke-miterlimit="10" stroke-width=".036"/>
 <path d="m140.55,98.742c.396.972.828,1.332 1.296,1.476 .433,0 1.152-.648 1.332-1.116 .145-.54-.072-1.26-.504-2.016 .324.828.36,1.404.252,1.872-.216.396-.72.792-1.116.792-.396-.072-.864-.36-1.26-1.008z" fill-rule="evenodd" stroke="#000" stroke-miterlimit="10" stroke-width=".036"/>
 <path d="m133.206,96.582c.899.648 1.332,1.296 1.439,1.8 .036.576-.647,1.152-1.079,1.296-.505,0-1.152-.396-1.944-1.188 .612.36 1.08.72 1.548.684 .324-.036 1.044-.252 1.044-.648-.036-.468-.324-1.116-1.008-1.944z" fill-rule="evenodd" stroke="#000" stroke-miterlimit="10" stroke-width=".036"/>
 <path d="m125.646,81.714c-.107.468-.144.972-.107,1.512-.072.504-.108,1.08.288,1.584 .396.288 1.26.216 2.016.612 .612.324 1.26.828 1.944,1.512 0,.684-.181,1.44-.145,2.268-.144.828-.071,1.584-.18,2.556l-2.232-.828c-.359-1.152-.863-1.908-1.367-2.412-.648-.54-1.332-.792-1.908-.612-.648.072-1.152.828-1.368,1.44-.216.54-.432,1.404.036,2.052 .432.504 1.296.972 2.196,1.548 .72.612 1.655,1.152 2.376,2.016 .575.684 1.115,1.692 1.476,2.628-1.836-1.188-3.132-1.728-4.032-1.764-.972-.036-1.439.9-1.403,1.692 0,.648 1.151,1.944 1.655,2.628 .469.648.612,1.152 1.261,1.368 .504-.036 1.8-.72 2.34-.648 .468,0 1.008.864.792,1.188-.216.288-1.692.18-2.088.648-.469.288-.612.828-.576,1.764-.108.828.396,2.844.684,3.672 .324.72.828,1.044 1.368,1.116 .432,0 .792-.252 1.224-.9 .396,1.044.828,1.836 1.297,2.376s.756.72 1.26.684c.144,1.08.468,1.908.972,2.484 .36.432 1.296.54 1.836.9 .433.432.648.792 1.188,1.476 .432.648 1.188,1.224 1.872,2.124-1.116.612-2.089,1.152-2.916,2.016-.9.756-1.584,1.548-2.196,2.664-.756,1.044-1.512,2.268-1.836,3.815-.396,1.584-.468,3.168-.36,5.292-2.088-.504-4.68-1.26-7.775-2.268-3.313-1.188-8.316-3.024-11.124-3.96-2.736-.972-3.744-1.44-5.4-1.548-1.908-.216-3.924.432-5.472.54-1.584-.036-2.628.072-3.672-.252-1.08-.36-2.088-1.296-3.024-1.692-1.044-.468-1.98-.9-3.24-.9-1.368-.18-2.664.324-4.716.684-2.232.36-6.084,1.368-7.812,1.656-1.728.216-2.124.216-2.16-.144-.072-.36.792-1.116 1.764-1.872 .936-.792 2.484-1.728 3.816-2.808 1.296-1.188 2.412-2.484 3.744-4.176 1.26-1.764 2.628-5.04 3.816-6.228 1.044-1.224 1.476-1.008 2.664-1.152 1.152-.324 2.484-.324 4.14-.288 1.656.072 4.104.288 5.544.648 1.152.144 1.152.072 2.088.612 .828.432 2.088,1.584 3.384,2.484 1.188.936 2.484,1.908 4.32,2.916 1.872.792 3.996,1.548 6.66,2.124-2.844-1.044-5.147-2.124-7.2-3.24-2.016-1.188-3.816-2.628-4.86-3.492-1.152-1.044-1.476-1.188-1.944-2.088-.612-1.008-.72-2.34-1.296-3.312-.648-.972-1.296-1.872-2.232-2.556-1.044,0-2.196-.828-3.744-2.34-1.62-1.656-3.708-4.644-5.436-7.02-1.836-2.484-3.348-4.896-4.824-7.236-1.548-2.376-2.34-4.752-3.888-6.552-1.62-1.908-3.672-3.276-5.472-4.5-1.836-1.26-3.42-2.052-5.328-2.952-2.052-1.044-4.608-2.16-6.552-2.952-2.124-.864-4.32-1.656-5.472-2.232-1.116-.612-1.656-1.08-1.476-1.404-.036-.432.036-.9 1.62-1.404 1.476-.72 5.004-1.656 7.38-2.268 2.34-.576 4.536-1.152 6.444-1.188 1.728-.216 2.7-.18 4.32.396 1.548.54 3.276,1.8 5.184,2.952 1.836.972 3.78,2.304 5.688,3.42 1.872,1.044 3.564,2.34 5.364,3.204 1.692.648 2.88,1.26 4.68,1.692 1.62.468 3.42.612 5.4,1.116 1.836.324 4.248.828 6.264,1.368 1.944.468 3.816,1.008 5.616,1.764 1.656.72 2.988,1.656 4.536,2.664 1.472,1.045 2.912,2.017 4.316,3.313z" fill="#d4b3d1" fill-rule="evenodd" stroke="#000" stroke-miterlimit="10" stroke-width=".036"/>
 <path d="m119.2 89.814c-2.628-1.008-5.508-2.736-8.784-5.184-3.312-2.592-6.984-5.724-11.016-9.828 1.908 1.836 4.572 4.032 7.848 6.588 3.312 2.448 7.2 5.256 11.952 8.424z" fill-rule="evenodd" stroke="#000" stroke-miterlimit="10" stroke-width=".036"/>
 <path d="m119.45 94.53c-3.492-2.556-6.696-5.076-9.756-7.56-3.06-2.52-5.472-5.004-8.748-7.452-3.492-2.556-7.2-5.04-11.556-7.596 3.348 2.268 6.552 4.464 9.612 6.876 2.988 2.376 5.94 4.824 8.712 7.2 2.736 2.232 5.94 4.788 7.956 6.3 1.944 1.368 3.204 2.16 3.78 2.232z" fill-rule="evenodd" stroke="#000" stroke-miterlimit="10" stroke-width=".036"/>
 <path d="m122.95 99.966c-3.564-1.764-6.984-3.816-10.116-6.012-3.276-2.304-6.12-4.752-8.964-7.488 3.24 3.672 6.408 6.516 9.648 8.82 3.168 2.232 6.264 3.744 9.432 4.68z" fill-rule="evenodd" stroke="#000" stroke-miterlimit="10" stroke-width=".036"/>
 <path d="m121.51 103.06c-2.556-1.08-5.112-2.772-8.063-5.076-2.988-2.412-5.94-5.868-9.432-9-3.6-3.168-7.308-6.408-11.556-9.72 3.456 2.916 6.408 5.58 9 7.992 2.52 2.268 3.6 4.212 6.156 6.408 2.412 2.268 6.192 5.292 8.567 6.984 2.232 1.584 4.14 2.34 5.328 2.412z" fill-rule="evenodd" stroke="#000" stroke-miterlimit="10" stroke-width=".036"/>
 <path d="m106.206,122.934c2.664-.756 4.824-1.224 6.876-1.404 1.944-.216 3.276-.288 4.968.072 1.584.288 2.772.9 4.824,1.692 1.944.72 4.284,1.584 7.02,2.736-2.987-1.044-5.615-2.052-7.884-2.628-2.268-.864-3.456-1.188-5.939-1.368-2.665-.144-5.905.252-9.865.9z" fill-rule="evenodd" stroke="#000" stroke-miterlimit="10" stroke-width=".036"/>
 <path d="m89.43,118.326c1.98-.144 3.888.036 5.868.396 1.872.36 3.816.972 5.688,1.836-2.772-.612-5.04-1.152-6.948-1.476-1.98-.396-3.42-.648-4.608-.756z" fill-rule="evenodd" stroke="#000" stroke-miterlimit="10" stroke-width=".036"/>
 <path d="m125.97,80.778c.216-.396.576-.612 1.08-.648 .468-.072 1.152.036 1.656.324 .324.18.647.36.828.972 .18.54.216,1.224.252,2.196l1.512,1.872c.072-.432.396-.936.972-1.368 .54-.54 1.225-1.044 2.196-1.512l-.252-.9c-.864.18-1.439.36-1.872.144-.468-.18-.612-.612-.72-1.152-.288-.72-.324-1.62-.108-2.304 .252-.792.828-1.26 1.44-1.548 .504-.288 1.08-.18 1.584.18 .324.18.468.9.828,1.764 .324.972.684,2.088 1.224,3.744 .756.18 1.584.288 2.34.612 .721.18 1.513.396 2.232.936 .647.468 1.224,1.224 1.728,2.124-.036-1.008-.359-1.584-.575-2.124-.324-.504-.828-.54-1.225-.792-.432-.324-1.08-.576-1.404-.9-.432-.432-.792-.756-.936-1.368-.18-.684-.468-1.728-.18-2.304 .144-.684.611-.936 1.26-1.152 .612-.216 1.584-.108 2.34.18 .612.216.9.648 1.404,1.728 .432,1.008.828,2.556 1.188,4.5l.864-.18c-.216-1.728-.396-2.952-.396-3.816-.107-.936-.18-.864.072-1.332 .252-.504.72-1.224 1.26-1.476 .396-.288.9-.432 1.368-.288-.18-3.42-1.151-7.164-3.06-11.772-2.017-4.644-5.977-11.34-8.388-15.516-2.448-4.14-4.248-6.444-5.832-9.288-1.584-2.916-2.376-5.508-3.925-8.172-1.728-2.88-3.743-5.544-5.903-8.136-2.232-2.628-5.724-5.796-7.272-6.984-1.692-1.296-2.124-1.692-2.268-.216-.252,1.368.504,4.788 1.296,8.856 .828,4.104 2.16,10.908 3.168,15.408 .792,4.284 1.439,6.912 2.088,10.944 .576,4.068 1.368,10.152 1.944,13.248 .468,2.844.575,2.7 1.151,4.572 .433,1.872 1.332,5.076 1.872,6.84 .433,1.692.828,2.556 1.044,2.988 .685.36 1.405.72 2.125,1.116z" fill="#d4b3d1" fill-rule="evenodd" stroke="#000" stroke-miterlimit="10" stroke-width=".036"/>
 <path d="m137.99 73.578c-1.944-6.444-3.564-11.808-5.292-16.524-1.692-4.788-3.349-8.496-4.824-11.556 1.872 4.716 3.672 9.36 5.4 14.076s3.168 9.252 4.716 14.004z" fill-rule="evenodd" stroke="#000" stroke-miterlimit="10" stroke-width=".036"/>
 <path d="m132.7 73.506c-1.188-3.06-2.412-6.228-3.528-9.936-1.26-3.744-2.196-7.596-3.348-11.988 1.439 4.608 2.735 8.568 3.888 12.312 1.188 3.708 2.088 6.768 2.988 9.612z" fill-rule="evenodd" stroke="#000" stroke-miterlimit="10" stroke-width=".036"/>
 <path d="m156.03,90.138c.288-.432.756-1.476 1.548-2.736 .756-1.404 1.188-2.196 3.096-5.292 1.908-3.168 4.464-7.632 8.101-13.536-.36-2.7-.973-5.4-1.836-8.496-.864-3.132-1.98-6.264-3.349-9.792-1.548-3.6-3.275-7.812-4.896-11.268-1.729-3.492-3.204-6.768-4.429-9.396-1.26-2.808-2.231-4.464-2.916-6.768-.756-2.34-.899-3.924-1.403-6.84-.612-3.06-1.404-8.352-2.088-10.62-.757-2.196-1.729-2.808-2.341-2.808-.72-.18-1.26.936-1.764,1.944-.612.864-1.476,2.592-1.764,3.672-.36,1.008.036,1.692-.216,2.736-.324,1.008-1.225,1.908-1.872,3.276-.864,1.404-1.908,2.7-2.845,4.428-.972,1.476-2.016,3.06-2.735,4.608-.792,1.476-1.44,2.736-1.801,4.464-.468,1.584-.468,3.312-.575,5.58-.108,2.196-.145,4.896-.108,7.956 1.584,1.944 3.132,4.428 4.788,7.164 1.728,2.7 3.456,6.768 5.04,9.432 1.439,2.664 2.484,4.572 3.42,6.408 .72,1.584.864,2.448 1.404,3.96 .468,1.584 1.296,3.96 1.655,5.472 .288,1.476.396,2.484.324,3.168 .252.144.576.432.828.864 .18.324.432.828.612,1.512 .144.648.144,1.764 0,2.521-.252.647-.9,1.224-1.656,1.728l.468,1.476 1.584.18 1.08-2.988c-.396-.936-.611-1.8-.504-2.592 .072-.9.324-1.944.9-2.304 .468-.396 1.691-.144 2.268.216 .468.252.612.828.864,1.584 .144.684.216,1.62.216,2.808 .612-.252 1.188-.18 1.729.072 .504.216 1.115.684 1.296,1.548-.072.756-.576,2.124-.937,3.276-.358,1.115-.754,2.195-1.186,3.383z" fill="#d4b3d1" fill-rule="evenodd" stroke="#000" stroke-miterlimit="10" stroke-width=".036"/>
 <path d="m156.894,75.558c.288-2.448.108-6.084-.54-11.34-.647-5.292-1.871-11.772-3.527-19.872 1.188,4.752 2.195,9.108 3.023,13.356 .828,4.176 1.44,8.712 1.692,11.808 .144,2.952-.072,4.968-.648,6.048z" fill-rule="evenodd" stroke="#000" stroke-miterlimit="10" stroke-width=".036"/>
 <path d="m151.998,70.194c.252-3.852 0-7.668-.36-12.132-.54-4.5-1.188-8.964-2.34-14.076 1.656,5.832 2.592,10.944 3.096,15.336 .432,4.428.252,7.92-.396,10.872z" fill-rule="evenodd" stroke="#000" stroke-miterlimit="10" stroke-width=".036"/>
 <path d="m153.546,83.046-.504,2.556 1.188,1.044 .757-.756c-.433-.756-.721-1.476-.721-2.016-.036-.612.072-1.044.469-1.44-.397.18-.793.396-1.189.612z" fill="#d4b3d1" fill-rule="evenodd" stroke="#000" stroke-miterlimit="10" stroke-width=".036"/>
 <path d="m156.354,90.534 .504,1.368 .684-.756-.54-1.512-.648.9z" fill="#d4b3d1" fill-rule="evenodd" stroke="#000" stroke-miterlimit="10" stroke-width=".036"/>
 <path d="m158.334,87.438c.936-.288 1.62-.288 2.052,0 .433.144.612.648.54,1.512-.216.828-.936,2.124-1.188,3.312-.396,1.044-.648,2.448-.612,3.24-.072.648.216,1.044.864,1.044 .54-.18 1.943-1.044 2.844-1.476 .756-.576 2.196-1.044 2.52-.972 .289,0 .072.648-.359,1.548-.576.9-2.232,3.24-2.448,4.104-.288.612.756.396 1.188.612 .359.216.972-.18 1.26,1.044 .216,1.224.288,3.24.216,6.192 .433.144 1.188.432 1.872.864 .685.432 1.512.936 2.484,1.656 .756-2.196 1.656-4.536 3.096-7.02 1.332-2.628 3.708-5.328 5.04-8.1 1.08-2.916 1.729-5.796 2.376-8.64 .612-2.88 1.188-5.22 1.872-8.28 .648-3.204 1.62-7.344 2.484-10.332 .792-3.096 1.655-5.544 2.592-7.884 .936-2.448 1.979-4.536 2.988-6.264 .936-1.764 1.979-3.312 2.592-4.212 .396-1.008.684-1.332.324-1.656-.433-.36-1.261-.72-2.484-.504-1.368.18-3.456.684-5.148,1.368-1.836.54-3.491,1.584-4.968,2.016-1.548.252-2.844-.36-3.744-.18-.899.072-1.368.072-1.836,1.116-.647.936-1.26,2.88-1.836,5.004-.647,2.052-1.332,5.148-1.908,7.344-.611,2.052-.828,3.06-1.764,5.256-1.152,2.16-3.024,5.004-4.5,7.56-1.584,2.412-3.132,5.112-4.248,6.984-1.081,1.836-1.801,2.952-2.161,3.744z" fill="#d4b3d1" fill-rule="evenodd" stroke="#000" stroke-miterlimit="10" stroke-width=".036"/>
 <path d="m165.39 89.13c1.907-3.384 3.636-7.092 5.184-11.268 1.584-4.176 2.772-8.676 3.96-13.644-1.044 5.544-2.196 10.224-3.744 14.472-1.549 4.104-3.349 7.632-5.4 10.44z" fill-rule="evenodd" stroke="#000" stroke-miterlimit="10" stroke-width=".036"/>
 <path d="m167.77 94.278c2.124-4.5 3.743-8.244 5.147-11.772 1.296-3.456 2.232-6.516 2.809-9.036-0.792 3.744-1.837 7.308-3.133 10.836-1.403 3.456-2.916 6.732-4.823 9.972z" fill-rule="evenodd" stroke="#000" stroke-miterlimit="10" stroke-width=".036"/>
 <path d="m131.802,132.113c3.024.757 6.12,1.297 9.288,1.332 3.168.072 7.092-.684 9.54-.899 2.34-.288 2.88-.18 4.536-.792 1.439-.756 3.204-2.809 4.752-3.528 1.44-.72 3.24.252 4.428-.972 1.116-1.476 1.549-4.355 2.412-7.127 .828-2.808 1.765-5.868 2.664-9.324-1.188-.936-2.268-1.692-3.527-2.124-1.225-.432-2.521-.576-3.889-.576-1.656-.144-3.636-.252-5.256.072-1.656.252-3.132.792-4.284,1.62-1.188.756-2.268,1.764-2.7,3.024-.504,1.152-.575,2.664-.504,3.852-.18.972-.071,1.62.324,2.52 .468.9 2.52,2.556 2.412,2.88-.288.108-2.628-.864-3.564-1.404s-1.115-1.296-1.943-1.584c-1.044-.432-2.376-.612-3.708-.54-1.404-.036-2.736.18-4.141.792-1.584.612-3.023,1.656-4.176,2.988-1.151,1.26-1.764,2.952-2.231,4.68-.506,1.619-.649,3.274-.433,5.11z" fill="#d4b3d1" fill-rule="evenodd" stroke="#000" stroke-miterlimit="10" stroke-width=".036"/>
 <path d="m171.006,131.142c.288-2.231.504-4.607 1.044-6.983 .396-2.52 1.009-5.256 1.692-7.524 .72-2.232 1.8-4.14 2.556-6.012 .576-1.98 1.009-3.708 1.296-5.76 .253-2.232.36-5.976.181-6.804-.324-.936-1.044.18-2.017,1.836-1.115,1.584-3.275,5.652-4.248,8.028-1.008,2.16-1.151,3.24-1.836,5.76-.792,2.52-1.907,6.912-2.664,9.432-.827,2.412-1.26,4.14-2.124,5.184-.936.899-2.195.144-3.204.504-1.08.216-2.052.468-3.06,1.152-1.08.72-2.16,2.195-3.384,2.916-1.296.468-2.736.504-4.32.647-1.692.108-3.528.252-5.364.433-1.979.107-5.111.144-5.508.504-.432.071.937.396 3.276,1.115 2.376.864 5.724,1.98 10.584,3.744-.036.937.576,2.053 1.439,3.349 .9,1.332 2.16,2.808 4.068,4.428 1.872,1.404 4.104,2.88 6.984,4.284 2.195,3.023 4.248,6.191 6.155,9.899 1.872,3.564 3.564,7.2 5.221,11.736 1.476,4.464 2.88,8.928 4.355,15.048 1.548,6.12 3.204,14.292 4.536,21.204 1.08,6.768 2.052,14.724 2.628,19.44 .648,4.644.9,7.416 1.044,8.46 .756.287 1.548.432 2.376.432 .721-.072 1.656-.252 2.412-.684-.611-5.616-1.26-11.232-2.088-17.389-.9-6.156-1.8-12.924-2.988-19.188-1.296-6.408-2.52-11.736-4.5-18.469-2.124-6.84-5.399-16.38-7.487-21.96-2.053-5.579-3.564-9.216-4.681-11.195 .612-1.944.973-3.78 1.225-5.652 .107-1.872.324-3.815.107-5.436-.359-1.765-1.044-3.528-1.62-4.608-.646-1.116-1.294-1.692-2.086-1.871z" fill="#3b3b19" fill-rule="evenodd" stroke="#000" stroke-miterlimit="10" stroke-width=".036"/>
 <path d="m115.098,77.826c1.116-1.944 1.476-4.644.936-8.388-.648-3.744-2.016-9.216-4.104-13.788-2.16-4.68-5.328-8.568-8.388-13.608-3.132-5.112-7.524-11.484-9.972-16.776-2.52-5.472-4.212-11.376-5.076-15.336-.864-3.996.288-6.696-.288-8.244-.684-1.62-2.124-2.304-3.492-.936-1.44,1.476-3.528,5.652-4.608,9.324-1.188,3.492-1.908,7.344-1.872,11.7 0,4.284.684,9.036 2.052,14.256-2.412-2.016-4.68-4.284-6.804-6.948-2.196-2.808-4.032-6.84-6.192-9.18-2.268-2.376-5.004-3.78-7.092-4.608-2.196-.828-4.32-1.152-5.544-.144-1.296.972-1.692,3.168-1.764,6.012-.072,2.7.684,6.552 1.296,10.44 .504,3.816 1.656,8.712 2.052,12.348 .288,3.564.288,6.516 0,9-1.764-.072-3.276.144-4.14.792-.9.648-1.368,1.728-1.548,2.844-.288.936-.396,1.944-.18,3.024-2.88-1.692-6.048-3.168-9.504-4.572-3.636-1.548-7.56-3.096-11.376-3.816-3.924-.648-7.992-.324-11.232-.144-3.24-.144-7.128-.828-7.92.468-.864,1.332.648,5.22 3.024,7.92 2.376,2.628 7.524,5.364 10.728,8.064 2.988,2.664 5.256,4.824 7.776,7.74 2.448,2.844 4.716,5.724 6.948,9.036-6.3-2.16-11.952-3.636-17.244-4.428-5.4-1.008-10.8-1.224-14.4-.648-3.636.612-8.172,2.412-6.948,4.284 1.26,1.764 9.756,4.104 14.4,6.336 4.464,2.124 7.992,4.14 12.816,6.48 4.824,2.268 11.916,4.896 16.128,7.056 4.068,1.98 5.472,4.104 8.388,5.4 2.916,1.188 5.724,1.872 8.856,2.052 7.776,4.752 15.876,9.54 24.84,14.652 8.928,5.039 18.18,10.115 28.332,15.516 1.116,2.448 3.023,4.68 5.867,7.128 2.809,2.34 6.301,4.608 10.765,6.948 9.359,10.512 17.1,20.088 24.048,29.016 6.696,8.856 11.772,16.272 16.776,24.192 5.04,7.884 9.792,16.308 13.284,22.788 3.384,6.3 5.651,11.411 6.947,15.191 .864.468 1.765.685 2.845.648 1.079-.108 2.052-.433 3.348-1.116-2.16-5.94-5.437-12.888-9.828-21.672-4.464-8.856-11.52-21.708-16.596-30.24-5.148-8.604-8.496-13.14-13.933-20.412-5.544-7.308-11.628-14.724-18.684-22.788-.252-4.644-.937-8.388-2.196-11.808-1.26-3.313-2.952-6.156-5.22-8.244-1.656-11.195-3.349-20.124-4.933-27.215-1.655-7.128-2.916-10.944-4.752-15.192-1.942-4.284-4.102-7.704-6.622-10.404zm-3.024,6.444 1.116-2.664c3.168,5.112 5.399,9.252 6.983,12.96 1.477,3.528 1.512,5.868 2.052,8.568 .396,2.628.792,5.148.792,7.416-1.439-5.832-2.88-10.8-4.752-15.192-1.871-4.464-3.887-8.064-6.191-11.088zm-3.636,5.4c3.06,5.976 5.436,11.016 7.272,15.516 1.8,4.428 2.916,8.064 3.492,11.052-3.456-4.572-6.264-8.496-8.856-12.168-2.556-3.636-4.716-6.804-6.48-9.504 .828-.432 1.62-1.116 2.376-1.908s1.44-1.836 2.196-2.988zm-18.972,15.156c1.26.9 3.636,3.024 7.272,6.516 3.6,3.42 10.44,10.296 14.256,14.256 3.636,3.887 6.768,8.459 7.74,8.856 .899.18.107-3.313-2.232-7.128-2.448-3.96-8.352-11.124-12.168-15.516-3.96-4.428-7.488-7.776-10.98-10.44l-2.052,2.052c-.684.54-1.296,1.008-1.836,1.404zm-9.972,6.192c1.8,2.196 4.284,4.572 7.74,7.128 3.384,2.556 7.56,5.148 12.672,8.064-4.32-4.788-7.776-8.352-10.908-11.375-3.096-2.88-5.58-5.076-7.452-6.192l-2.052,2.375z" fill-rule="evenodd" stroke="#000" stroke-miterlimit="10" stroke-width=".036"/>
 <path d="m114.774,78.654-1.044,2.484c1.152,1.62 2.34,3.6 3.708,6.228 1.261,2.628 3.061,5.94 4.141,9.108 .972,3.024 1.656,6.48 2.052,9 .288,2.484-.036,4.284 0,5.544-.108,1.116-.216,1.44-.468,1.116-.288-.468-.576-1.26-1.26-3.636-.9-2.592-2.376-7.848-3.456-10.764-1.044-2.844-1.62-4.176-2.7-6.228-1.224-2.196-2.556-4.32-4.284-6.516-.324.864-.828,1.656-1.116,2.376-.324.648-.828,1.224-1.116,1.728 .936,1.908 1.944,4.104 3.168,6.732 1.08,2.592 2.952,6.264 3.96,8.784 1.008,2.34 1.476,3.672 2.231,5.796 .612,2.088 1.332,4.392 1.872,6.624 .684,2.16 1.08,4.032 1.584,6.012 .36,1.872.792,5.184.324,5.22-.648-.18-.937-1.979-3.78-5.688-2.988-3.816-9.647-12.348-13.32-16.452-3.672-4.068-5.544-5.832-8.388-7.92-2.988-2.232-7.884-4.932-8.856-5.04s1.512,2.808 3.168,4.572c1.512,1.656 3.852,3.456 6.192,5.688 2.232,2.16 5.364,5.04 7.596,7.524 2.16,2.448 3.888,4.608 5.616,6.876 1.548,2.124 3.024,3.78 4.428,5.94 1.439,2.124 3.203,4.356 4.031,6.408 .721,1.872.828,4.104.469,4.896-.469.576-1.044.648-2.845-.611-1.943-1.368-5.363-4.464-7.919-6.805-2.628-2.339-4.176-4.391-7.128-7.271-3.06-3.168-6.696-7.344-10.764-10.728-4.212-3.456-11.844-8.424-13.752-9.216-1.872-.828 1.188,3.204 2.52,4.752 1.26,1.476 2.88,2.592 5.004,4.464 2.016,1.836 5.04,4.572 7.128,6.66 1.944,2.016 3.276,3.276 4.968,5.184 1.548,1.62 3.132,3.456 4.896,5.363 1.764,1.98 6.12,5.904 5.868,6.48-.432.432-4.176-1.908-7.92-3.96-3.996-2.196-10.152-6.12-14.724-9-4.536-2.916-8.28-5.796-11.808-8.496-1.296.072-2.736,0-4.32-.072-1.692-.108-3.384-.36-5.364-.612 1.584,1.044 4.644,2.916 9.18,5.616 4.5,2.736 11.916,7.128 17.82,10.547 5.796,3.24 12.852,6.984 17.136,9.288 4.14,2.269 6.84,3.744 7.956,4.429 .792,2.231 2.484,4.392 5.22,6.768 2.736,2.34 6.265,4.645 10.98,7.056 3.42,3.853 7.128,8.316 11.268,13.393 4.104,5.111 9.072,11.052 13.5,16.992 4.356,5.76 8.424,11.52 12.601,17.855s8.063,12.924 12.06,20.052c3.924,7.057 7.561,14.364 11.196,22.213 .9.216 1.8.252 2.556.252 .756-.072 1.368-.288 1.98-.648-1.08-3.42-3.168-8.244-6.408-14.724-3.24-6.517-7.704-15.12-12.816-23.904s-4.464-8.388-9.18-15.876-4.212-6.769-9.685-14.112c-5.436-7.344-8.388-10.728-12.168-15.264-3.743-4.536-6.695-7.776-9-9.972 .036-2.269-.071-4.465-.468-6.732-.396-2.34-.899-4.716-1.908-6.984-1.115-2.34-2.699-4.355-4.752-6.479-1.439-9.144-2.556-16.452-3.636-22.32-1.044-5.868-1.764-8.928-2.7-12.492-1.08-3.564-2.16-6.192-3.636-9-1.548-2.918-3.492-5.798-5.688-8.498z" fill="#3b3b19" fill-rule="evenodd" stroke="#000" stroke-miterlimit="10" stroke-width=".036"/>
 <path d="m99.006,98.454 3.888-3.024c2.952,3.816 5.724,7.596 8.604,11.484 2.88,3.924 6.588,8.604 8.352,11.7 1.584,2.844 1.549,5.544 1.404,6.012-.252.468-1.512-1.62-2.808-3.204-1.404-1.692-3.168-3.924-5.436-6.84-2.376-2.988-6.372-8.028-8.64-10.692-2.412-2.736-4.068-4.5-5.364-5.436z" fill="#61611f" fill-rule="evenodd" stroke="#000" stroke-miterlimit="10" stroke-width=".036"/>
 <path d="m89.106,105.186c2.628,2.34 5.544,4.824 8.604,7.848 3.024,2.952 6.696,6.516 9.756,9.864 2.988,3.239 5.688,6.407 8.244,9.647-2.268-1.477-4.824-3.564-7.524-6.12-2.844-2.7-6.156-6.552-8.964-9.468-2.916-3.024-6.012-6.156-8.028-7.992-2.052-1.8-3.24-2.7-3.852-2.7 .576-.359 1.152-.719 1.764-1.079z" fill="#61611f" fill-rule="evenodd" stroke="#000" stroke-miterlimit="10" stroke-width=".036"/>
 <path d="m73.95 112.03 4.608-0.684c2.124 2.196 4.464 4.104 6.876 6.12 2.448 1.98 5.076 3.78 7.74 5.544 2.484 1.656 5.04 2.916 7.524 4.175l4.428 4.248c-3.24-1.62-6.444-3.276-9.612-5.111-3.276-1.8-6.012-3.6-9.576-5.832-3.708-2.412-7.524-5.184-11.988-8.46z" fill="#61611f" fill-rule="evenodd" stroke="#000" stroke-miterlimit="10" stroke-width=".036"/>
 <path d="m98.178,97.734c1.98-1.512 3.816-2.808 5.508-4.428 1.692-1.656 3.096-2.916 4.608-4.896 1.512-2.124 2.88-5.004 4.104-7.128 .972-2.16 1.944-3.132 2.376-5.4 .288-2.34.792-4.572 0-8.208-.828-3.852-3.24-9.972-4.896-13.788-1.656-3.744-3.348-5.436-5.22-8.532-2.016-3.168-4.788-6.876-6.804-10.296-2.088-3.564-4.32-7.236-5.724-10.44-1.512-3.24-2.376-6.192-3.132-8.856-.828-2.664-1.512-5.04-1.908-7.128 .252-1.836.36-3.132.324-4.428 .036-1.224-.18-2.592-.504-2.988-.54-.576-1.368-.9-2.196.144-.9,1.152-1.98,3.528-2.844,6.156-.864,2.448-1.98,5.328-2.376,8.244-.468,2.7-.576,5.22-.324,8.532 .216,3.312.792,7.56 1.728,10.944 .828,3.132 2.088,5.508 3.492,8.676 1.368,3.204 3.096,5.868 4.5,10.62 1.332,4.752 2.376,11.952 3.42,17.568 .936,5.508 1.872,11.124 2.52,15.336 .684,4.068.972,7.128 1.26,9.18 .684.36 1.368.72 2.088,1.116z" fill="#d4b3d1" fill-rule="evenodd" stroke="#000" stroke-miterlimit="10" stroke-width=".036"/>
 <path d="m93.57,35.058c3.168,5.76 5.76,10.8 7.92,15.516 2.16,4.464 3.744,8.388 4.896,12.204 1.116,3.816 1.8,7.452 1.908,10.908 .36-3.348-.108-6.804-1.116-10.764-1.224-4.032-3.06-8.172-5.364-12.816-2.34-4.752-5.04-9.576-8.244-15.048z" fill-rule="evenodd" stroke="#000" stroke-miterlimit="10" stroke-width=".036"/>
 <path d="m96.738,49.458c2.7,5.328 4.608,10.08 5.868,14.4 1.152,4.248 1.116,7.668 1.404,11.232 .18,3.528.18,6.516 0,9.504 .396-4.464.504-8.388.324-12.168-.288-3.78-.36-6.516-1.584-10.296-1.26-3.852-3.312-8.028-6.012-12.672z" fill-rule="evenodd" stroke="#000" stroke-miterlimit="10" stroke-width=".036"/>
 <path d="m90.654,68.718c-.36-2.196-.504-3.996-.828-5.4-.36-1.476-.504-2.448-.828-3.06l-2.088.612-.468-3.96c.396-1.044.504-1.836.468-2.376-.216-.612-.576-1.296-1.08-.936-.54.324-1.584,2.016-1.764,2.988-.144.9.252,1.836.648,2.232 .288.252.504.036.936-.648l.18,2.844c-.324-.54-.9-.756-1.584-.936-.756-.18-1.656-.18-2.7,0 .288-2.268.288-3.852.144-4.752-.288-1.044-.9-1.08-1.26-.792-.432.288-.684,1.872-.612,2.52 .072.504.54.72 1.26.648l-.792,3.312c1.368.828 2.556,1.872 3.96,2.844 1.296.972 2.844,2.304 3.96,3.168 1.008.756 1.872,1.368 2.448,1.692z" fill="#fee010" fill-rule="evenodd" stroke="#000" stroke-miterlimit="10" stroke-width=".036"/>
 <path d="m77.586,59.538c.252-1.8.252-2.844 0-3.564-.324-.72-1.548-.792-1.584-.504-.072.18.252.864 1.116,1.908l-.468,1.584c.288.18.612.36.936.576z" fill="#fee010" fill-rule="evenodd" stroke="#000" stroke-miterlimit="10" stroke-width=".036"/>
 <path d="m56.994,52.806c.936-.324 2.268-.36 3.996-.108 1.764.18 4.428.972 6.336,1.548 1.728.504 2.916.9 4.392,1.728 1.512.684 2.844,1.584 4.392,2.556l.576-1.08c-.648-.576-.864-1.116-1.044-1.476-.18-.468-.036-.936.288-.972 .288-.144 1.332-.144 1.728.288 .324.324.468,1.08.576,1.872 0,.684-.036,1.512-.252,2.484 .36.144.648.252 1.008.468 .324.18.576.324.9.576l.72-2.772c-.432,0-.72,0-.864-.144-.252-.252-.36-.252-.324-.684-.036-.54-.036-1.296.144-1.836 .036-.54.144-.864.468-1.116 .252-.324.864-.468 1.26-.288 .324.18.576.792.756,1.44 .144.54.108,1.116.18,1.872-.072.648-.036,1.44-.18,2.376 .504-.108 1.044-.18 1.62-.072 .54.036 1.008.108 1.548.36v-.648c-.36.036-.648.18-.864.036-.252-.108-.432-.216-.54-.612-.216-.54-.396-1.368-.252-2.088 .144-.792.504-1.692.936-2.268 .288-.72.648-1.332 1.08-1.404 .324-.072 1.188.252 1.476.828 .216.36.396,1.368.396,1.908-.036.576-.252,1.008-.504,1.44l.324,3.24 1.296-.576c.072-1.584-.252-3.348-.684-5.148-.576-1.944-1.296-3.78-2.304-5.94-1.224-2.268-2.808-5.076-3.78-7.02-.864-1.98-1.368-3.564-1.368-4.752-1.404-.864-2.88-1.944-4.428-3.636-1.692-1.764-3.636-4.248-5.004-6.192-1.404-2.016-2.124-4.032-3.132-5.472-1.188-1.476-2.016-2.124-3.456-3.06-1.584-1.008-3.744-2.448-5.364-2.808-1.584-.54-3.348-.648-4.176.108-1.044.72-1.332,2.124-1.404,4.356-.072,2.16.432,5.652.936,8.82 .396,3.096 1.152,7.344 1.584,9.828 .396,2.304.468,2.664.756,4.536 .144,1.872.504,4.572.54,6.3 .036,1.548-.108,2.664-.288,3.204z" fill="#d4b3d1" fill-rule="evenodd" stroke="#000" stroke-miterlimit="10" stroke-width=".036"/>
 <path d="m81.006,51.366c.144-.864-.252-2.304-1.476-4.464-1.26-2.232-3.096-5.004-5.652-8.604 1.62,2.376 3.096,4.608 4.284,6.84s2.088,4.176 2.844,6.228z" fill-rule="evenodd" stroke="#000" stroke-miterlimit="10" stroke-width=".036"/>
 <path d="m76.182,51.834c-.072-1.368-.756-3.096-1.656-5.184-1.044-2.196-3.06-5.148-4.248-7.344-1.26-2.232-2.34-4.068-3.24-5.652 1.152,2.556 2.412,4.824 3.492,6.948 1.044,1.944 2.196,3.564 3.168,5.4 .9,1.872 1.728,3.816 2.484,5.832z" fill-rule="evenodd" stroke="#000" stroke-miterlimit="10" stroke-width=".036"/>
 <path d="m95.406,96.258c-.288-2.376-.864-5.616-1.584-10.116-.828-4.572-1.8-9.9-3.06-16.524-2.88-2.304-5.364-4.248-7.596-5.832-2.34-1.692-3.816-2.664-5.94-3.888-2.232-1.404-4.644-2.592-6.948-3.708-2.34-1.116-4.788-2.124-6.768-2.592-2.052-.504-4.032-.324-5.112-.288-1.188-.072-1.08.036-1.764.18-.9.036-2.016,0-2.772.288-.792.144-1.26.288-1.692,1.008-.612.648-1.044,2.16-1.296,3.168-.216.972.144,1.872.108,2.7-.144.648-.576.684-1.008,1.476-.612.72-1.908,1.692-1.944,3.06 0,1.26 1.548,3.096 2.016,4.824 .324,1.584-.288,3.708.108,5.256 .36,1.548 1.188,2.988 1.656,4.176 .288,1.044-.684.288.288,2.592 .9,2.268 2.736,5.904 5.364,11.052 2.196,1.404 4.86,2.628 7.992,4.068 3.168,1.332 6.588,2.7 10.656,4.104-.288-.612-.324-1.08-.108-1.26 .144-.288.396-.576 1.296-.18 .864.36 2.268,1.152 3.924,2.232 1.512,1.008 3.348,2.196 5.364,3.708 .504-.216 1.26-.828 2.412-1.692 1.044-1.008 2.484-2.124 4.176-3.78-1.404-1.332-2.628-2.484-3.528-3.456-.936-1.044-1.872-1.908-2.124-2.592-.396-.792-.756-1.728-.108-1.836 .54-.18 2.16.612 3.348,1.116 1.08.432 2.268,1.188 3.132,1.729 .756.467 1.26.755 1.512,1.007z" fill="#d4b3d1" fill-rule="evenodd" stroke="#000" stroke-miterlimit="10" stroke-width=".036"/>
 <path d="m55.518 72.642c2.376 3.312 5.076 6.552 7.704 9.72 2.664 3.132 5.724 6.588 8.352 9.108 2.412 2.268 4.5 4.068 6.84 5.544 2.412 1.512 4.716 2.916 7.344 3.924-3.096-1.476-6.156-3.456-9.18-5.94-3.168-2.52-5.796-5.508-9.288-9.108-3.636-3.78-7.38-8.1-11.772-13.248z" fill-rule="evenodd" stroke="#000" stroke-miterlimit="10" stroke-width=".036"/>
 <path d="m68.406 78.294c1.908 2.808 4.068 5.796 6.876 8.82 2.736 2.952 5.868 6.084 9.54 9.252-2.988-2.88-5.832-5.652-8.532-8.712-2.772-3.096-5.4-6.084-7.884-9.36z" fill-rule="evenodd" stroke="#000" stroke-miterlimit="10" stroke-width=".036"/>
 <path d="m69.234 72.534c2.808 4.032 5.616 7.452 8.28 10.404 2.736 2.916 5.148 5.112 7.776 6.876-3.384-2.808-6.336-5.652-9-8.532-2.628-2.88-5.112-5.796-7.056-8.748z" fill-rule="evenodd" stroke="#000" stroke-miterlimit="10" stroke-width=".036"/>
 <path d="m76.398,101.838c-1.332-.36-3.384-1.008-5.76-1.944-2.592-1.116-6.192-2.556-9-3.888-2.808-1.368-4.536-2.232-7.416-3.708-3.132-1.584-6.876-3.816-10.116-5.184-3.204-1.44-5.76-2.34-8.784-3.24-3.168-1.044-6.228-1.908-9.576-2.592-3.456-.756-7.2-1.332-10.26-1.584-3.096-.144-6.048-.252-7.884.072-1.872.108-2.304.36-3.24.756-1.08.252-2.448.828-2.988,1.296-.612.396-1.152.864-.648,1.404 .396.432.9.864 3.168,1.836 2.268.936 7.128,2.592 10.296,3.996 2.988,1.224 4.608,2.34 7.776,3.888 3.168,1.44 7.2,3.528 10.584,5.004 3.132,1.332 6.192,2.376 8.496,3.42 2.124.972 3.42,1.548 5.004,2.7 1.512,1.008 2.736,2.556 4.644,3.528s4.14,1.548 6.408,2.124c2.124.36 4.356.648 6.3.864 1.764.216 3.06.396 5.004.54 1.872.036 4.932.072 6.696-.18 1.692-.396 2.844-.972 3.888-1.584 .972-.612 1.728-1.368 2.124-2.124-.72-.504-1.512-1.26-2.232-2.124-.792-.936-1.62-1.98-2.484-3.276z" fill="#d4b3d1" fill-rule="evenodd" stroke="#000" stroke-miterlimit="10" stroke-width=".036"/>
 <path d="m41.442,93.702c6.12,2.988 10.872,5.364 14.652,7.416 3.636,1.908 4.824,3.42 7.596,4.536 2.664,1.044 6.768,1.548 8.712,1.944 1.872.324 2.844.252 2.772-.072-.396.108-1.512-.072-3.348-.396-1.98-.396-5.148-.9-7.956-1.944-2.88-1.188-5.148-3.132-8.892-5.004-3.888-1.944-8.424-4.14-14.004-6.588l.468.108z" fill-rule="evenodd" stroke="#000" stroke-miterlimit="10" stroke-width=".036"/>
 <path d="m55.914,98.778c2.592,1.476 4.752,2.556 7.02,3.528 2.088.9 4.32,1.548 5.868,1.944 1.476.396 2.448.504 3.06.468-1.98-.36-4.176-1.008-6.876-1.944-2.664-1.044-5.688-2.376-9.072-3.996z" fill-rule="evenodd" stroke="#000" stroke-miterlimit="10" stroke-width=".036"/>
 <path d="m50.154,60.366c-2.304-1.404-4.5-2.484-6.876-3.636-2.412-1.152-4.788-2.268-7.128-3.06-2.376-.9-4.824-1.512-6.948-1.836-2.268-.288-4.32-.432-6.3-.288-1.98,0-3.78.036-5.4.108-1.692-.108-3.528-.54-4.536-.468-1.152.036-1.836-.072-2.052.648-.18.72.036,1.979.648,3.348 .504,1.224 1.26,2.808 2.412,4.068 1.044,1.116 2.34,1.908 3.888,2.952 1.368,1.008 3.06,1.8 4.644,3.06 1.512,1.152 3.06,2.448 4.644,3.888 1.44,1.404 2.556,2.412 4.176,4.284 1.584,1.836 3.636,4.176 5.184,6.192 1.368,1.908 2.448,3.42 3.24,4.932 2.016.72 3.852,1.656 5.652,2.412 1.692.612 2.88,1.548 4.824,2.412 1.908.936 3.996,2.052 6.408,3.348-1.656-2.844-2.952-5.328-3.888-7.164-1.044-1.908-1.872-3.276-2.052-4.248s.396-1.188.468-1.764c-.072-.792-.756-1.512-.936-2.304-.252-.828-.72-1.404-.72-2.412-.072-1.188.216-2.844.18-3.996-.288-1.116-.576-1.8-1.008-2.592-.432-.9-.936-1.872-1.116-2.521-.252-.828-.252-1.188 0-1.764 .18-.612.792-1.008 1.296-1.584 .396-.575.828-1.295 1.296-2.015z" fill="#d4b3d1" fill-rule="evenodd" stroke="#000" stroke-miterlimit="10" stroke-width=".036"/>
 <path d="m30.786 64.722c4.428 3.24 7.776 5.76 10.476 7.956 2.592 2.052 4.284 3.6 5.076 4.644-1.296-1.584-2.772-3.132-4.428-4.644-1.836-1.656-3.852-3.168-5.76-4.536-1.908-1.332-3.6-2.52-5.364-3.42z" fill-rule="evenodd" stroke="#000" stroke-miterlimit="10" stroke-width=".036"/>
 <path d="m35.574,64.074c1.836,1.188 3.384,2.232 4.644,3.132 1.224.828 2.16,1.62 2.808,2.232-.9-1.224-1.908-2.268-3.168-3.132-1.224-.864-2.7-1.656-4.284-2.232z" fill-rule="evenodd" stroke="#000" stroke-miterlimit="10" stroke-width=".036"/>
 <path d="m166.326,89.13c-.973-1.836-3.384-3.852-7.236-6.048-3.924-2.304-11.448-4.788-15.912-7.452-4.607-2.844-8.244-6.516-11.34-8.928-3.132-2.376-3.96-4.464-7.344-5.292-3.601-.864-10.224-.54-13.5-.144-3.42.288-7.272.144-6.156,2.052 1.152,1.944 9.108,5.94 12.78,8.928 3.456,2.736 6.228,4.968 8.315,7.956 2.053,2.952 2.269,6.336 4.104,10.008 1.728,3.636 4.32,9.252 6.264,12.132 1.8,2.808 3.384,3.204 4.464,4.932 .973,1.728 1.368,3.24 1.332,5.076-3.023-1.404-5.76-2.16-8.063-2.664-2.376-.612-4.212-.792-5.904-.108-1.728.72-2.808,2.952-4.355,4.464-1.584,1.368-2.988,2.556-5.04,3.852-2.196,1.332-6.912,2.664-7.488,3.708-.576.864 1.26,1.332 3.96,1.692 2.592.252 8.712-.576 11.7.144 2.844.684 3.6,2.808 6.155,3.852 2.664.828 6.624.647 9.505,1.548 2.628.828 2.987,1.691 6.768,3.852 3.708,2.124 10.908,6.229 15.768,8.82 4.753,2.412 9.396,4.32 12.673,6.012 3.132,1.584 5.22,2.916 6.264,3.853 .396,2.304 1.477,4.428 3.24,6.768 1.656,2.269 4.032,4.464 6.983,6.732 2.736,5.399 4.788,11.124 6.301,17.604 1.439,6.48 2.124,14.185 2.628,20.592 .359,6.229.432,10.801.359,16.776-.144,5.94-.611,13.644-.827,18.648-.253,4.932-.54,8.352-.721,10.691 1.692.792 2.88,1.188 3.96,1.332 .973.108 1.656-.18 2.053-.72 1.296-15.12 1.943-27.828 1.8-38.808-.216-11.053-1.477-18.685-2.521-26.641-1.151-8.028-2.304-14.76-3.852-20.736 1.368-2.483 2.231-4.823 2.88-6.876 .576-2.231.828-4.031.612-5.796-.324-1.728-1.08-3.204-2.412-4.428 1.296-4.032 2.916-7.812 4.716-11.34 1.8-3.672 4.536-6.588 6.12-10.116 1.476-3.672 2.448-7.236 2.916-11.232 2.664-5.724 5.076-10.584 7.235-15.012 2.053-4.5 3.673-8.136 5.544-11.34 1.908-3.168 3.744-5.724 5.652-7.812 1.656-2.232 4.752-4.356 4.824-5.544 0-1.26-1.908-1.908-4.356-1.944-2.664-.108-7.92,1.08-10.367,1.224-2.448.036-2.484-1.584-3.708-.972-1.261.432-1.98,1.728-3.528,4.32-1.584,2.664-3.636,6.3-6.012,11.34 .252-4.5-.072-9.216-.828-14.544-.828-5.4-2.809-11.7-3.996-17.1-1.44-5.4-2.916-9.792-3.601-14.976-.647-5.4.145-13.392-.252-16.632-.611-3.204-1.584-3.06-2.771-2.628-1.26.288-3.349,3.024-4.32,4.464-1.08,1.332-.54,2.16-1.836,3.852-1.368,1.656-4.428,3.852-6.264,6.156-2.088,2.232-4.068,3.996-5.4,7.092-1.296,2.952-2.196,6.48-2.556,10.728-.685-4.284-2.124-8.712-4.464-13.14-2.376-4.572-7.668-12.672-9.612-13.608-2.052-.972-2.16,3.204-2.412,7.812-.324,4.572.468,13.5.576,19.404 0,5.76-.432,10.836-.469,15.084-.071,4.068-.252,6.408 0,9.648 .144,3.169.468,6.265.972,9.433z" fill-rule="evenodd" stroke="#000" stroke-miterlimit="10" stroke-width=".036"/>
 <path d="m189.582,100.182 .145-2.52c.611.036 1.188-.288 1.584-.828 .359-.612.72-1.98.792-2.592 0-.828-.252-1.404-.756-1.584-.685-.216-2.124,0-2.664.504-.612.36-.396,1.152-.469,2.088-.144.864-.107,1.908-.036,3.132-.468-.072-.863-.072-1.188,0-.324,0-.72.216-.9.36 0-2.196-.18-3.78-.396-4.896-.324-1.08-.685-1.764-1.225-1.908-.647-.396-1.8-.324-2.195.216-.433.468-.504,1.944-.072,2.772 .468.684 1.188,1.368 2.556,1.764 .217.792.288,1.62.217,2.484-.145.828-.324,1.584-.685,2.412-.107-1.404-.54-2.772-1.584-3.708-1.08-.972-2.52-1.908-4.464-2.412 .18-1.332.108-2.232-.072-3.24-.216-1.044-.72-2.124-1.116-2.412-.611-.36-1.439.072-1.8.612-.288.432-.611,1.8-.144,2.304 .324.504 1.044.504 2.16.396 .071.648.107,1.152.107,1.512-.071.36-.18.54-.324.684-.863.036-1.548.288-2.195.612s-1.225.828-1.729,1.512l-1.62-2.592c.252-1.224.217-2.088-.107-2.592-.468-.612-1.692-.828-2.16-.504-.576.468-1.044,1.944-.828,2.772 .288.576 1.44.54 2.196,1.152 .54.576 1.008,1.404 1.404,2.484-.612.864-.937,1.764-1.116,2.7-.181.864-.181,1.764 0,2.7-.864-.756-1.692-1.188-2.196-1.692-.576-.396-.972-.864-1.188-1.008 .107-.9-.036-1.512-.433-1.98-.396-.576-1.548-1.044-1.908-.828-.54.288-1.296,1.26-.864,2.34 .433,1.044 2.593,2.592 3.421,3.672 .684.9.828,1.08 1.116,1.908 .252.72.323,1.656.359,2.664-.684-.504-1.439-.936-2.124-1.44-.828-.54-1.764-1.62-2.268-1.692-.648-.144-1.152.072-1.116.792 .071.648.684,2.484 1.403,3.132 .505.504 1.333.54 2.089.108 .684,0 1.26.432 1.439.9 .108.432.217,1.764-.216,2.196-.54.36-2.016-.612-2.483,0-.505.432-.721,2.304-.505,3.096 .145.792.973,1.476 1.513,1.62 .396,0 .792-.432 1.044-1.44-.181.9-.072,1.8.324,2.556 .323.792.972,1.44 1.8,2.088 .107,1.224.432,2.34.828,2.952 .468.576 1.008.396 1.619,1.008 .433.54.685,1.728 1.152,2.448 .432.684.828,1.188 1.332,1.656 1.188.071 2.304.18 3.348.323 .973.072 1.872-.144 2.7.324 .756.324 1.332,1.08 1.872,1.98 .468.396.756.288 1.008.071 .145-.359.108-.972.288-1.836 .036-.972.181-2.411.864-3.491 .684-1.188 1.836-2.376 3.456-3.024 1.584-.828 3.456-1.188 5.76-1.08 2.124.072 4.572.684 7.2,1.692 .828-2.736 1.188-4.608.936-5.76-.287-1.188-2.771-.216-2.447-1.116 .288-.972 4.212-4.104 4.14-4.68-.252-.648-3.888,1.008-4.932,1.08-.973-.108-1.188-.504-1.08-1.188-.072-.828.288-2.088.792-3.204 .468-1.296 2.088-2.7 2.088-3.528-.252-.756-2.088-1.332-2.592-.9-.469.396-.54,1.26-.216,2.988l-1.368,1.008c-.36-.9-.576-1.584-.648-2.196-.107-.612-.18-1.044-.072-1.296 .9-1.044 1.513-1.944 2.124-2.7 .504-.828 1.152-1.512 1.116-2.052-.288-.612-1.62-1.8-2.052-1.476-.396.36-.648,1.404-.468,3.42l-1.62,1.188c-.288-.432-.504-.792-.792-1.08-.324-.324-.576-.576-.9-.756l1.404-3.06c1.152-.18 1.8-.576 2.088-1.332 .18-.828-.288-2.628-.72-3.024-.504-.396-1.62-.036-1.98.684-.396.648-.54,1.656-.288,3.168l-1.512,2.952c-.972-.324-1.764-.324-2.232-.396-.611-.072-.647.18-.792.216-.143-.071-.071-.143.073-.359z" fill="#fee010" fill-rule="evenodd" stroke="#000" stroke-miterlimit="10" stroke-width=".036"/>
 <path d="m189.51,102.234c-.035.648-.144,1.116-.323,1.548-.252.396-.576.612-.973.792l.072,1.116c.18.324.54.504.937.684 .323.144.827.288 1.367.288 .324-.144.576-.324.757-.684 .071-.504-.036-1.08.071-1.584-.036-.648.072-1.152.324-1.512 .216-.396.576-.612 1.08-.648-.937.432-1.836.72-2.304.72-.503,0-.972-.288-1.008-.72z" fill-rule="evenodd" stroke="#000" stroke-miterlimit="10" stroke-width=".036"/>
 <path d="m189.906,103.062c-.072.432-.036.972-.288,1.224-.144.36-.576.432-.9.612v.504c.181.252.396.612.792.684 .36.036.937.18 1.297,0 .144-.288-.036-1.044.035-1.44 .036-.468.181-.9.288-1.296-.359.144-.684.144-.828.144-.216-.072-.396-.216-.396-.432z" fill="#d4b3d1" fill-rule="evenodd" stroke="#000" stroke-miterlimit="10" stroke-width=".036"/>
 <path d="m186.702,106.158c0,.864-.144,1.512-.432,1.8-.36.288-.864.288-1.513,0l-.18,2.844-.18-3.708c.576.54 1.08.576 1.512.504 .398-.108.613-.72.793-1.44z" fill-rule="evenodd" stroke="#000" stroke-miterlimit="10" stroke-width=".036"/>
 <path d="m183.678,105.366c-.144.684-.468,1.188-.827,1.8-.433.504-1.044,1.116-1.692,1.44-.756.216-1.548.288-2.521.072 .685.108 1.404-.036 2.305-.576 .828-.612 1.691-1.476 2.735-2.736z" fill-rule="evenodd" stroke="#000" stroke-miterlimit="10" stroke-width=".036"/>
 <path d="m173.347,105.906c.396.612.972,1.08 1.584,1.548 .611.432 1.296.72 2.052,1.008-.864-.576-1.656-1.116-2.232-1.476-.648-.432-1.117-.792-1.404-1.08z" fill-rule="evenodd" stroke="#000" stroke-miterlimit="10" stroke-width=".036"/>
 <path d="m184.074,117.534c-.756.396-1.296.396-2.016.396-.757-.036-1.297-.468-2.017-.9 .54.648 1.044,1.116 1.656,1.404 .54.144 1.439.144 1.872,0 .362-.216.577-.468.505-.9z" fill-rule="evenodd" stroke="#000" stroke-miterlimit="10" stroke-width=".036"/>
 <path d="m189.727,113.718c.323.936.144,1.764-.145,2.196-.396.396-1.08.684-2.052.576 .72-.108 1.332-.324 1.692-.792 .324-.504.54-1.116.505-1.98z" fill-rule="evenodd" stroke="#000" stroke-miterlimit="10" stroke-width=".036"/>
 <path d="m191.634,110.586c.685-.216 1.08-.468 1.584-.9 .324-.468.757-1.008.9-1.62 .072.252.468.432.792.54 .324.036.792,0 1.404-.108-.252.216-.54.72-.864,1.512-.324.72-.72,1.764-1.044,2.988-1.044-.432-1.944-.72-2.556-.72-.685-.108-1.08.036-1.332.432 .54-.468 1.08-.864 1.224-1.188s.109-.684-.108-.936z" fill-rule="evenodd" stroke="#000" stroke-miterlimit="10" stroke-width=".036"/>
 <path d="m192.103,112.134c.035-.504.18-.684.144-.936 .036-.288-.108-.252-.144-.288 .647-.072 1.151-.432 1.512-.684 .36-.288.54-.864.684-1.332 .036.108.145.18.324.216 .108.036.432-.108.685-.144-.253.576-.576,1.08-.685,1.656-.18.468-.288.972-.324,1.512-.468-.216-.863-.252-1.188-.252-.397,0-.685.036-1.008.252z" fill="#d4b3d1" fill-rule="evenodd" stroke="#000" stroke-miterlimit="10" stroke-width=".036"/>
 <path d="m196.71,115.446c-.504.108-.684.468-.684,1.08 0,.576.18,1.296.684,2.304-.54-.252-1.116-.432-1.872-.396s-1.655.144-2.7.468c1.188-.144 2.196-.216 3.169-.072 .899.108 1.655.288 2.268.684-.648-1.188-1.152-1.944-1.224-2.664-.217-.72 0-1.188.359-1.404z" fill-rule="evenodd" stroke="#000" stroke-miterlimit="10" stroke-width=".036"/>
 <path d="m171.15,112.782c.72.54.972,1.044.899,1.512-.144.468-.647.9-1.512,1.296 .576-.576.864-1.08 1.008-1.512 .109-.504-.07-.936-.395-1.296z" fill-rule="evenodd" stroke="#000" stroke-miterlimit="10" stroke-width=".036"/>
 <path d="m173.022,116.922c1.224.648 1.908,1.368 1.908,2.016 .035.576-.612,1.224-1.801,1.8 .685.18 1.296.54 1.98,1.224 .612.648 1.151,1.62 1.764,2.772-.432-1.224-.756-2.16-1.26-2.808-.432-.72-1.044-1.044-1.548-1.116 1.044-.504 1.368-1.188 1.26-1.764-.142-.72-1.007-1.332-2.303-2.124z" fill-rule="evenodd" stroke="#000" stroke-miterlimit="10" stroke-width=".036"/>
 <path d="m174.858,111.774c.288,1.152.792,1.692 1.368,1.764 .575,0 1.367-.576 2.231-1.728-.684.792-1.08,1.548-1.332,2.268-.252.648-.359,1.332-.18,2.052 .107.612.288,1.296.684,1.908-.611-.432-.972-1.044-1.08-1.692-.18-.684-.107-1.548.217-2.448-.612.18-1.009.108-1.332-.216-.36-.324-.503-1.008-.576-1.908z" fill-rule="evenodd" stroke="#000" stroke-miterlimit="10" stroke-width=".036"/>
 <path d="m182.347,120.954c-.648.432-1.116.576-1.549.576-.432-.108-.828-.36-1.044-.9-.144.576 0,1.008.288,1.296 .288.216.756.288 1.404.216-.072.54-.108,1.008.036,1.8 .036.612.252,1.548.504,2.411-.216-1.403-.288-2.375-.216-3.312s.216-1.583.577-2.087z" fill-rule="evenodd" stroke="#000" stroke-miterlimit="10" stroke-width=".036"/>
 <path d="m185.982,119.226c.036.756.359,1.332.828,1.728 .468.252 1.403.54 1.979.288 .433-.252.864-.9 1.008-1.8 .252.576.252,1.08 0,1.512-.252.396-1.188.792-1.691.9-.576-.072-1.548-.396-1.8-.828-.396-.504-.504-1.008-.324-1.8z" fill-rule="evenodd" stroke="#000" stroke-miterlimit="10" stroke-width=".036"/>
 <path d="m186.882,112.134c-1.151-.072-1.907.18-2.268.468-.396.36-.396.9-.145,1.476 .108.468.505.756 1.045,1.152-.9-.468-1.44-.864-1.62-1.332-.288-.468-.324-1.296.18-1.512 .468-.252 1.405-.468 2.808-.252z" fill-rule="evenodd" stroke="#000" stroke-miterlimit="10" stroke-width=".036"/>
 <path d="m179.754,110.766c.252.9.54,1.44 1.008,1.62 .36.036 1.188-.324 1.513-.792 .216-.504.18-1.116-.108-1.98 .145.864.108,1.332-.107,1.8-.288.432-.9.468-1.261.504-.361-.18-.757-.468-1.045-1.152z" fill-rule="evenodd" stroke="#000" stroke-miterlimit="10" stroke-width=".036"/>
 <path d="m172.95,107.274c.72.792 1.08,1.44 1.08,1.944-.18.432-.792,1.044-1.296,1.008-.468-.108-1.08-.612-1.692-1.512 .504.504.973.828 1.404.972 .36.108 1.008-.072 1.116-.396 .108-.468-.144-1.044-.612-2.016z" fill-rule="evenodd" stroke="#000" stroke-miterlimit="10" stroke-width=".036"/>
 <path d="m168.342,92.01c-.216.396-.396.9-.396,1.368-.072.432-.396,1.08 0,1.548 .252.396 1.188.432 1.836.936 .576.432 1.116,1.08 1.62,1.8-.216.684-.36,1.332-.576,2.088-.252.72-.468,1.548-.648,2.34l-2.016-1.224c-.144-1.116-.432-1.944-.864-2.484-.575-.684-1.224-1.008-1.8-.972-.648-.036-1.224.504-1.584,1.044-.468.504-.576,1.152-.324,1.944 .216.576 1.152,1.044 1.836,1.836 .685.648 1.332,1.476 1.944,2.34 .468.792.792,1.764.972,2.772-1.619-1.44-2.699-2.304-3.636-2.448-.972-.288-1.584.612-1.692,1.296-.036.612.612,1.98 1.116,2.736 .252.648.396,1.296.972,1.548 .576.18 1.801-.396 2.413-.18 .539.072.684,1.008.575,1.296-.432.216-1.62-.18-2.159.18-.54.252-.793.612-.9,1.512-.181.828-.181,2.664 0,3.564 .252.72.576,1.152 1.116,1.296 .396.072.899-.072 1.368-.576 .252,1.044.432,1.8.827,2.412 .252.54.721.792 1.116.9-.072,1.008.145,1.836.504,2.484 .36.54 1.08.756 1.584,1.224 .288.396.54.936.9,1.62 .396.611.828,1.439 1.439,2.34-1.151.252-2.268.72-3.203,1.26-.973.433-1.908,1.152-2.664,2.017-1.009.827-1.801,1.8-2.521,3.203-.648,1.368-1.152,2.881-1.368,4.824-1.908-.899-4.248-2.016-7.164-3.636-2.988-1.656-7.668-4.536-10.151-5.868-2.593-1.439-3.24-2.088-5.005-2.52-1.8-.54-3.995-.396-5.472-.54-1.476-.252-2.664-.576-3.563-.972-1.009-.684-1.801-1.548-2.664-2.196-1.009-.72-1.729-1.152-2.988-1.44-1.404-.36-2.664-.288-4.752-.324-2.196-.036-6.336-.036-7.992,0-1.692-.144-2.16-.288-2.088-.576-.036-.36.936-.864 2.088-1.368 1.08-.54 2.736-1.152 4.284-1.836 1.439-.864 2.771-1.872 4.428-3.168 1.477-1.476 3.636-4.068 4.932-5.004 1.297-1.008 1.584-.54 2.809-.54 1.152,0 2.484.144 4.14.576 1.584.396 3.996,1.152 5.292,1.692 1.116.396 1.116.252 1.944.972 .828.576 1.728,1.836 2.844,2.952s1.98,2.304 3.708,3.564c1.584,1.188 3.672,2.196 6.12,3.312-2.592-1.548-4.644-3.024-6.444-4.428-1.872-1.476-3.204-3.204-4.14-4.212-1.008-1.116-1.188-1.476-1.512-2.34-.36-1.008-.396-2.34-.648-3.312-.359-1.08-.972-2.016-1.691-2.808-1.044-.252-1.98-1.224-3.24-2.916-1.26-1.8-2.88-5.112-4.032-7.56-1.296-2.7-2.376-5.256-3.384-7.668-1.044-2.52-1.44-4.86-2.557-6.876-1.331-2.088-2.987-3.78-4.535-5.22-1.513-1.548-3.024-2.484-4.681-3.78-1.908-1.476-3.996-2.771-5.868-4.032-1.872-1.224-3.888-2.412-4.932-3.168-1.008-.792-1.404-1.332-1.188-1.62 0-.468.288-.792 1.836-.972 1.62-.324 5.148-.576 7.668-.612 2.376-.144 4.644-.144 6.516.144 1.764.18 2.664.36 4.212,1.224 1.368.864 2.916,2.268 4.5,3.78 1.584,1.368 3.276,2.844 4.933,4.284 1.584,1.368 3.096,2.844 4.68,4.032 1.439,1.008 2.664,1.692 4.248,2.484 1.62.684 3.132,1.332 5.076,2.088 1.728.756 4.067,1.548 5.903,2.52 1.801.828 3.564,1.692 5.148,2.736 1.476.936 2.664,2.196 3.96,3.384 1.295,1.224 2.411,2.484 3.635,3.924z" fill="#d4b3d1" fill-rule="evenodd" stroke="#000" stroke-miterlimit="10" stroke-width=".036"/>
 <path d="m160.53 98.238c-2.376-1.44-4.933-3.564-7.668-6.516-2.809-3.024-5.796-6.696-8.964-11.304 1.476 2.088 3.672 4.644 6.443 7.668s6.121 6.264 10.189 10.152z" fill-rule="evenodd" stroke="#000" stroke-miterlimit="10" stroke-width=".036"/>
 <path d="m159.88 102.67c-2.952-3.096-5.58-5.976-8.172-8.928-2.556-2.916-4.428-5.796-7.164-8.64-2.844-3.096-6.192-6.084-9.9-9.36 2.809 2.736 5.616 5.508 8.137 8.316 2.483 2.88 4.823 5.58 7.164 8.388 2.34 2.628 4.823 5.616 6.624 7.416 1.619 1.656 2.771 2.592 3.311 2.808z" fill-rule="evenodd" stroke="#000" stroke-miterlimit="10" stroke-width=".036"/>
 <path d="m162.29 108.39c-3.204-2.448-6.084-4.788-8.784-7.56-2.771-2.7-5.111-5.652-7.416-8.712 2.521 4.104 5.076 7.236 7.813 10.08 2.735 2.628 5.399 4.824 8.387 6.192z" fill-rule="evenodd" stroke="#000" stroke-miterlimit="10" stroke-width=".036"/>
 <path d="m160.28 110.98c-2.269-1.476-4.536-3.528-6.948-6.3-2.448-2.952-4.788-6.552-7.561-10.224-2.88-3.672-6.012-7.344-9.54-11.304 2.845 3.42 5.292 6.444 7.345 9.216 1.908 2.628 2.88 4.644 4.859 7.164s5.04 6.156 7.093 8.136c1.944 1.944 3.528 2.952 4.752 3.312z" fill-rule="evenodd" stroke="#000" stroke-miterlimit="10" stroke-width=".036"/>
 <path d="m141.558,126.39c2.7-.107 5.04-.18 7.021.072 1.872.18 3.312.396 4.859,1.044 1.44.54 2.593,1.368 4.429,2.484 1.764,1.044 3.888,2.411 6.372,3.96-2.772-1.584-5.148-3.024-7.272-4.032-2.196-1.044-3.023-1.944-5.544-2.412-2.593-.54-5.833-1.044-9.865-1.116z" fill-rule="evenodd" stroke="#000" stroke-miterlimit="10" stroke-width=".036"/>
 <path d="m126.006,118.794c1.98.216 3.816.864 5.652,1.548s3.527,1.62 5.22,2.808c-2.556-1.152-4.68-2.016-6.516-2.736s-3.24-1.26-4.356-1.62z" fill-rule="evenodd" stroke="#000" stroke-miterlimit="10" stroke-width=".036"/>
 <path d="m168.811,91.218c.288-.36.792-.396 1.224-.396 .432.036 1.08.288 1.512.612 .288.288.504.468.648,1.08 .036.468.036,1.26-.145,2.088l1.116,2.016c.216-.36.576-.756 1.225-1.044 .611-.36 1.367-.684 2.411-.972l-.071-.9c-.9.072-1.477,0-1.872-.216-.504-.216-.433-.72-.468-1.224-.036-.648-.072-1.656.323-2.196 .217-.612 1.152-1.08 1.692-1.116 .468-.072 1.152,0 1.512.504 .252.288.324.828.504,1.764 .072.828.36,2.196.469,3.708 .756.288 1.439.684 2.195,1.044 .612.36 1.477.612 2.017,1.296 .504.54.936,1.368 1.296,2.34 .071-.936-.036-1.584-.181-2.088-.216-.504-.756-.684-1.044-.972-.432-.36-.936-.792-1.224-1.152-.396-.432-.612-.864-.648-1.44-.107-.684-.071-1.692.252-2.196 .288-.54.721-.756 1.44-.792 .576-.036 1.656.18 2.268.648 .433.396.828.792 1.045,1.872 .18,1.008.287,2.484.323,4.428h.9c.072-1.62.18-2.88.324-3.636 .036-.864-.036-.9.323-1.224 .253-.54.937-.864 1.513-1.116 .432-.18.936-.18 1.368,0 .54-3.168.144-6.876-.792-11.52-1.08-4.716-3.78-11.736-5.328-16.056-1.656-4.356-2.88-6.768-3.96-9.72-1.188-3.132-1.188-5.508-2.341-8.388-1.224-2.988-2.592-5.94-4.247-8.712-1.765-2.808-4.5-6.552-5.832-7.92-1.297-1.548-1.836-1.908-2.16-.648-.433,1.224-.433,4.5-.396,8.46-.036,3.996.145,10.548.252,14.94 .036,4.212.036,6.624 0,10.548-.216,3.816-.504,9.792-.576,12.672-.107,2.88.108,2.52.253,4.464 .107,1.872.287,4.932.539,6.696 .217,1.584.253,2.628.505,2.988 .611.468 1.223.972 1.836,1.476z" fill="#d4b3d1" fill-rule="evenodd" stroke="#000" stroke-miterlimit="10" stroke-width=".036"/>
 <path d="m181.95,86.934c-.648-6.3-1.296-11.628-2.088-16.38-.792-4.716-1.656-8.568-2.592-11.7 1.044,4.68 1.8,9.432 2.664,14.112 .828,4.68 1.368,9.288 2.016,13.968z" fill-rule="evenodd" stroke="#000" stroke-miterlimit="10" stroke-width=".036"/>
 <path d="m176.802,85.782c-.684-3.06-1.224-6.228-1.619-9.9-.433-3.636-.828-7.56-1.045-11.772 .612,4.536 1.08,8.46 1.549,12.168 .467,3.564.792,6.732 1.115,9.504z" fill-rule="evenodd" stroke="#000" stroke-miterlimit="10" stroke-width=".036"/>
 <path d="m196.566,105.834c.288-.396 1.008-1.188 2.016-2.232 .937-1.116 1.584-1.8 4.032-4.284 2.376-2.592 5.868-6.156 10.476-10.98 .072-2.484.036-5.22-.252-8.208-.323-3.06-.756-6.264-1.439-9.756-.756-3.6-1.836-7.956-2.664-11.412-1.008-3.6-1.872-6.84-2.592-9.576-.721-2.808-1.44-4.644-1.62-6.876-.324-2.268-.072-3.816-.072-6.588-.036-2.916.216-8.064-.072-10.296-.324-2.232-1.188-2.88-1.764-3.06-.72-.288-1.332.612-2.124,1.44-.828.72-1.908,2.016-2.412,3.06-.576.936-.216,1.548-.72,2.52-.54.828-1.477,1.584-2.412,2.664-1.116.936-2.376,2.34-3.636,3.528-1.332,1.224-2.521,2.412-3.564,3.708-1.08,1.152-1.836,2.376-2.556,3.816-.685,1.332-1.225,3.024-1.62,5.076-.576,2.052-1.116,4.5-1.62,7.344 1.152,2.124 2.232,4.644 3.384,7.56s2.16,6.912 3.168,9.756c.792,2.664 1.692,4.824 2.16,6.624 .468,1.692.36,2.412.648,3.96 .18,1.656.468,3.78.575,5.4 0,1.368-.035,2.412-.252,2.988 .252.18.469.504.648.972 .072.324.36.828.324,1.512-.072.648-.145,1.656-.504,2.34-.396.576-1.08,1.008-1.908,1.296l.144,1.44 1.548.504 1.584-2.592c-.252-.972-.252-1.8 0-2.484 .181-.9.612-1.692 1.297-1.944 .54-.288 1.728.252 2.195.648 .433.36.433.9.54,1.62 .036.648-.107,1.62-.288,2.628 .648-.108 1.261.036 1.692.432 .36.396 1.044.828.936,1.692-.144.828-.972,1.728-1.512,2.844-.612.936-1.152,1.908-1.764,2.916z" fill="#d4b3d1" fill-rule="evenodd" stroke="#000" stroke-miterlimit="10" stroke-width=".036"/>
 <path d="m200.094,92.478c.721-2.232 1.261-5.652 1.62-10.656 .324-5.04.36-11.268.252-19.08 .36,4.572.469,8.892.469,12.96-.036,4.068-.181,8.388-.576,11.304-.433,2.844-.973,4.536-1.765,5.472z" fill-rule="evenodd" stroke="#000" stroke-miterlimit="10" stroke-width=".036"/>
 <path d="m196.314,86.502c.899-3.492 1.548-7.056 1.943-11.268 .36-4.248.469-8.568.324-13.536 .396,5.832.576,10.584.145,14.832-.324,4.176-1.26,7.452-2.412,9.972z" fill-rule="evenodd" stroke="#000" stroke-miterlimit="10" stroke-width=".036"/>
 <path d="m195.414,98.778-.972,2.232 .972,1.224 .9-.576c-.288-.792-.396-1.512-.324-2.016 0-.576.288-.972.72-1.188l-1.296.324z" fill="#d4b3d1" fill-rule="evenodd" stroke="#000" stroke-miterlimit="10" stroke-width=".036"/>
 <path d="m196.782,106.266 .252,1.368 .792-.576-.216-1.512-.828.72z" fill="#d4b3d1" fill-rule="evenodd" stroke="#000" stroke-miterlimit="10" stroke-width=".036"/>
 <path d="m199.302,103.746c.937-.036 1.656.108 2.017.432 .359.252.432.756.216,1.512-.288.648-1.296,1.872-1.764,2.844-.576.936-1.152,2.124-1.188,2.88-.18.648.036,1.08.648,1.152 .684-.036 1.979-.684 3.06-.828 .973-.252 2.232-.612 2.664-.396 .288.18-.072.504-.647,1.368-.685.756-2.845,2.556-3.169,3.312-.323.576.576.468 1.045.792 .432.216.827.108 1.044,1.224-.072,1.224-.252,3.024-.937,5.796 .433.216 1.044.612 1.692,1.188 .611.504 1.26,1.224 2.088,2.016 1.116-1.944 2.52-3.78 4.355-5.904 1.692-2.196 4.717-4.14 6.444-6.516 1.692-2.448 2.736-5.112 3.96-7.56 1.152-2.52 2.088-4.68 3.384-7.308 1.225-2.88 2.952-6.408 4.356-9.072 1.332-2.736 2.628-4.824 4.032-6.804 1.403-2.088 2.771-3.78 4.104-5.22 1.26-1.404 2.557-2.664 3.313-3.384 .611-.9.828-1.116.647-1.476-.252-.396-1.08-.9-2.34-.936-1.368-.216-3.563,0-5.328.216-1.836.108-3.78.864-5.256.9-1.548-.108-2.7-.828-3.6-.9-1.009-.18-1.261-.144-2.017.648-.828.828-1.8,2.448-2.771,4.284-1.08,1.8-2.196,4.5-3.204,6.444-1.08,1.8-1.296,2.664-2.736,4.536-1.548,1.8-3.96,4.068-5.832,6.12-2.016,1.98-4.032,4.14-5.472,5.652-1.404,1.404-2.339,2.448-2.808,2.988z" fill="#d4b3d1" fill-rule="evenodd" stroke="#000" stroke-miterlimit="10" stroke-width=".036"/>
 <path d="m205.89 106.73c2.483-2.772 4.932-5.868 7.199-9.432 2.232-3.528 4.429-7.524 6.444-11.844-1.98 4.896-4.104 9.072-6.372 12.672-2.34 3.492-4.716 6.408-7.271 8.604z" fill-rule="evenodd" stroke="#000" stroke-miterlimit="10" stroke-width=".036"/>
 <path d="m207.29 111.99c2.88-3.78 5.292-6.912 7.236-9.936 1.944-2.988 3.42-5.544 4.428-7.812-1.439 3.348-3.132 6.444-5.076 9.432-1.944 3.024-4.14 5.616-6.588 8.316z" fill-rule="evenodd" stroke="#000" stroke-miterlimit="10" stroke-width=".036"/>
 <path d="m164.958,139.962c2.809,1.368 5.76,2.34 8.856,3.06 2.987.612 7.128.828 9.504,1.044 2.376.108 2.844.54 4.607.181 1.584-.469 3.637-1.944 5.328-2.341 1.584-.468 3.132,1.009 4.5,0 1.332-1.115 2.34-3.815 3.708-6.155 1.261-2.412 2.845-5.076 4.356-8.137-.864-1.115-2.017-2.051-3.061-2.663-1.151-.612-2.34-1.044-3.708-1.296-1.584-.504-3.491-.864-5.147-.936-1.656-.036-3.313.072-4.536.612-1.368.468-2.484,1.224-3.204,2.268-.756.9-1.116,2.375-1.224,3.456-.288,1.008-.433,1.404-.145,2.448 .252.972 2.017,2.808 1.836,3.132-.323.108-2.412-1.404-3.204-2.016-.899-.757-.792-1.368-1.619-1.837-.937-.539-2.305-1.044-3.564-1.224-1.296-.324-2.736-.396-4.176-.072-1.584.36-3.42.864-4.681,1.908-1.367,1.008-2.34,2.304-3.06,3.888-.754,1.44-1.258,2.951-1.366,4.68z" fill="#d4b3d1" fill-rule="evenodd" stroke="#000" stroke-miterlimit="10" stroke-width=".036"/>
 <path d="m203.55,146.802c.612-2.052 1.44-4.14 2.341-6.264 .863-2.269 1.943-4.608 3.096-6.624 1.08-2.053 2.556-3.42 3.6-5.076 .973-1.729 1.656-3.24 2.34-5.076 .648-2.052 1.513-5.4 1.477-6.3-.216-.828-1.044-.072-2.34,1.296-1.404,1.368-4.212,4.536-5.652,6.588-1.548,1.799-1.692,2.772-2.916,5.003-1.26,2.124-3.132,6.12-4.356,8.244-1.26,1.98-2.052,3.708-3.06,4.356-1.152.575-2.088-.181-3.204-.181-1.151,0-2.088.036-3.24.504-1.26.433-2.556,1.656-3.888,2.017-1.476.216-2.736-.145-4.32-.252-1.728-.252-3.456-.469-5.327-.648-1.908-.288-5.04-.828-5.509-.647-.432.107.792.396 2.988,1.691 2.124,1.26 5.256,2.988 9.684,5.58-.144.9.072,1.98.792,3.384 .612,1.404 1.62,3.097 3.169,4.933 1.512,1.691 3.527,3.456 6.048,5.292 1.655,3.239 2.916,6.659 4.176,10.403 1.152,3.708 2.124,7.416 2.916,11.952 .684,4.32 1.116,8.928 1.439,14.796 .324,5.977.54,13.896.505,20.557-.181,6.479-.864,14.004-1.08,18.54-.324,4.392-.504,7.128-.54,8.063 .684.433 1.439.72 2.268.864 .756.144 1.584,0 2.484-.145 .504-5.327.863-10.655 1.224-16.523 .36-5.977.576-12.24.648-18.396-.145-6.084-.288-11.447-.973-18.036-.828-6.768-2.231-16.271-3.239-21.852-.973-5.544-1.801-9.252-2.484-11.268 .9-1.62 1.692-3.42 2.232-5.004 .575-1.692 1.008-3.456 1.151-5.005-.072-1.728-.324-3.456-.756-4.607-.47-1.188-.937-1.907-1.694-2.159z" fill="#3b3b19" fill-rule="evenodd" stroke="#000" stroke-miterlimit="10" stroke-width=".036"/>
 <path d="m207.727,250.59c1.008-2.556 2.195-8.028 3.563-16.561 1.44-8.676 3.78-21.672 4.5-34.416 .433-12.852.108-26.388-1.368-41.579 5.112,10.115 8.244,20.663 9.396,32.184 1.08,11.556-.972,25.848-2.664,36.216-1.729,10.188-4.212,18.252-7.596,24.588l-5.831-.432z" fill-rule="evenodd" stroke="#000" stroke-miterlimit="10" stroke-width=".036"/>
 <path d="m207.727,250.59c3.384-9.72 5.867-18.937 7.596-28.62 1.692-9.72 2.412-18.936 2.7-28.62 .216-9.72-.288-18.936-1.368-28.62 3.096,8.46 5.04,17.028 5.832,26.389 .792,9.287.216,19.296-1.332,29.052-1.729,9.684-4.428,19.044-8.496,28.62-1.621.575-3.277,1.187-4.932,1.799z" fill="#61611f" fill-rule="evenodd" stroke="#000" stroke-miterlimit="10" stroke-width=".036"/>
 <path d="m206.5 249.22c2.088-3.168 5.185-10.224 9.576-21.456 4.428-11.376 11.556-28.332 16.38-45.612 4.716-17.315 8.46-36.071 11.664-57.239 2.952 15.552 3.24 30.96 1.008 47.052-2.412 15.984-9.468 35.208-14.796 48.636-5.364 13.356-10.979 23.58-16.992 31.104-2.268-0.829-4.535-1.657-6.84-2.485z" fill-rule="evenodd" stroke="#000" stroke-miterlimit="10" stroke-width=".036"/>
 <path d="m206.502,249.222c7.092-12.06 13.141-24.084 18.288-36.647 5.076-12.709 8.964-25.129 12.348-38.232 3.349-13.14 5.761-25.992 7.524-39.528 1.08,12.528.612,24.948-1.404,37.944-2.195,12.924-5.832,26.532-10.907,39.276-5.185,12.672-11.412,24.588-19.368,36.323l-6.481.864z" fill="#61611f" fill-rule="evenodd" stroke="#000" stroke-miterlimit="10" stroke-width=".036"/>
 <path d="m202.4 248.97c-2.988-2.448-7.92-8.244-15.336-17.784-7.561-9.684-19.225-23.76-28.729-39.023-9.468-15.301-18.504-32.112-27.54-51.553 1.62 15.696 5.652 30.637 12.492 45.396 6.804 14.76 19.08 30.924 28.08 42.372 8.856 11.268 17.244 19.403 25.164 24.948 1.946-1.44 3.889-2.881 5.869-4.356z" fill-rule="evenodd" stroke="#000" stroke-miterlimit="10" stroke-width=".036"/>
 <path d="m202.4 248.97c-10.332-9.504-19.44-19.332-28.008-29.88-8.532-10.62-15.984-21.6-22.789-33.084-6.947-11.556-13.067-23.328-18.504-35.748 2.484 12.276 6.553 24.12 12.204 35.964 5.76 11.916 13.032 23.652 21.673 34.524 8.495 10.691 17.964 20.304 28.943 29.268 2.161-0.325 4.321-0.684 6.481-1.044z" fill="#61611f" fill-rule="evenodd" stroke="#000" stroke-miterlimit="10" stroke-width=".036"/>
 <path d="m207.76 245.3c-1.729-1.548-4.896-5.04-9.36-10.872-4.68-5.868-11.736-14.652-17.568-23.868-5.868-9.396-11.304-19.62-16.848-31.5 0.899 9.612 3.492 18.685 7.632 27.756 4.14 9.036 11.628 18.864 17.172 25.884 5.437 6.841 10.512 11.881 15.372 15.265 1.188-0.865 2.375-1.766 3.6-2.665z" fill-rule="evenodd" stroke="#000" stroke-miterlimit="10" stroke-width=".036"/>
 <path d="m207.76 245.3c-6.337-5.796-11.916-11.88-17.137-18.252-5.256-6.588-9.756-13.141-13.932-20.232-4.284-7.092-7.92-14.292-11.304-21.888 1.476 7.524 3.96 14.76 7.451 21.996 3.42 7.236 8.028 14.508 13.284 21.132 5.185 6.552 10.944 12.384 17.676 17.892 1.298-0.217 2.63-0.432 3.962-0.648z" fill="#61611f" fill-rule="evenodd" stroke="#000" stroke-miterlimit="10" stroke-width=".036"/>
 <path d="m200.53 247.13c-2.232-0.937-6.192-3.276-12.313-7.416-6.228-4.212-15.804-10.152-24.156-17.136-8.424-7.057-16.956-15.084-25.884-24.624 3.96 8.892 9.145 16.596 15.948 23.939 6.768 7.309 16.992 14.185 24.444 19.225 7.38 4.823 13.716 7.991 19.403 9.647 0.83-1.187 1.694-2.412 2.558-3.635z" fill-rule="evenodd" stroke="#000" stroke-miterlimit="10" stroke-width=".036"/>
 <path d="m200.53 247.13c-7.776-3.528-15.048-7.524-21.96-11.988-7.021-4.571-13.356-9.468-19.584-14.832-6.337-5.363-11.988-11.052-17.641-17.208 3.853 6.66 8.388 12.708 14.004 18.54 5.58 5.76 12.133 11.196 19.225 15.876 6.983 4.608 14.328 8.244 22.428 11.448 1.152-0.613 2.34-1.224 3.528-1.836z" fill="#61611f" fill-rule="evenodd" stroke="#000" stroke-miterlimit="10" stroke-width=".036"/>
 <path d="m115.134,253.758h134.676c2.195-2.664 2.124-4.716-.612-6.012-2.844-1.368-11.088-1.656-15.552-1.98-4.393-.396-6.3-.072-11.017-.144-4.932-.216-13.104-.216-18.144-.54-5.185-.433-4.464-1.08-12.276-1.404-7.92-.396-26.819-.972-34.344-.468-7.525.504-3.708,1.979-10.368,3.168-6.876.936-24.3,1.62-29.772,2.88-5.435,1.26-6.299,2.664-2.591,4.5z" fill-rule="evenodd" stroke="#000" stroke-miterlimit="10" stroke-width=".036"/>
 <path d="m115.062,253.109h134.568c1.765-1.872 1.404-3.096-1.08-4.212-2.735-1.044-9.575-1.691-14.111-2.088-4.536-.54-7.704-.647-12.564-.756-5.004-.252-11.412,0-16.74-.216-5.363-.324-6.804-.972-14.867-1.26-8.28-.396-26.677-.864-33.517-.433-6.732.324-.828,1.872-6.732,2.844-6.084.864-23.22,1.62-29.052,2.7s-7.849,2.089-5.905,3.421z" fill="#61611f" fill-rule="evenodd" stroke="#000" stroke-miterlimit="10" stroke-width=".036"/>
</svg>
